<svg width="24" height="24" viewBox="0 0 24 24" fill="none" xmlns="http://www.w3.org/2000/svg">
<path d="M23.9852 0C23.9896 0.118023 24 0.237419 24 0.355442C24 8.09282 24 15.8302 24 23.5676C24 23.8558 23.8442 23.9999 23.5326 23.9999C21.7091 23.9999 19.884 23.9999 18.0605 23.9999C17.7578 23.9999 17.6059 23.858 17.6049 23.5744C17.6049 20.8544 17.6049 18.133 17.6049 15.413C17.6049 15.1449 17.459 15.0104 17.1672 15.0095C13.7575 15.0095 10.3478 15.0095 6.93811 15.0095C6.64235 15.0095 6.49397 15.1509 6.49298 15.4336C6.49298 18.1289 6.49298 20.8242 6.49298 23.5182C6.49298 24.0218 6.50634 23.9999 5.95883 23.9999C4.12637 23.9999 2.29243 23.9999 0.459969 23.9999C0.00445131 23.9999 0.00296754 23.9985 0.00296754 23.5744C0.00445131 17.8023 0.00593508 12.0315 0 6.25934C0 6.01094 0.0786399 5.83254 0.27153 5.65687C1.91406 4.15688 3.5477 2.64591 5.18578 1.1418C5.54337 0.81381 5.90838 0.492678 6.2719 0.170173C6.31641 0.130374 6.35944 0.0658734 6.43066 0.094693C6.5004 0.12214 6.48853 0.194875 6.4915 0.252515C6.49447 0.337601 6.49298 0.421315 6.49298 0.506401C6.49298 3.21819 6.49298 5.92997 6.49298 8.64176C6.49298 8.90983 6.63988 9.04386 6.93366 9.04386C10.3434 9.04386 13.7531 9.04386 17.1628 9.04386C17.4576 9.04386 17.6049 8.91074 17.6049 8.64451C17.6049 5.76255 17.6049 2.88196 17.6049 0C19.7312 0 21.8574 0 23.9852 0Z" fill="#97DE00"/>
</svg>