<svg width="100" height="20" viewBox="0 0 100 20" fill="none" xmlns="http://www.w3.org/2000/svg">
<path d="M56.2064 0.00195312C56.3451 0.0583369 56.4939 0.0481878 56.6382 0.0673582C57.9707 0.248914 59.1532 0.780049 60.1859 1.62919C61.5443 2.74559 62.3819 4.18112 62.7066 5.91097C62.781 6.30791 62.8125 6.71049 62.8125 7.11532C62.8125 11.2167 62.8125 15.318 62.8125 19.4194C62.8125 19.4329 62.8125 19.4476 62.8125 19.4611C62.808 19.7002 62.79 19.7227 62.5465 19.7227C61.0776 19.7239 59.6075 19.7239 58.1387 19.7227C57.9019 19.7227 57.8805 19.699 57.8805 19.4543C57.8794 18.612 57.8805 17.7696 57.8805 16.9272C57.8805 13.6682 57.8782 10.4093 57.8828 7.15028C57.8828 6.72853 57.8151 6.32821 57.5772 5.97637C57.1432 5.33134 56.5536 4.95357 55.7544 4.92764C55.1873 4.90959 54.6812 5.05394 54.237 5.40915C53.7173 5.82639 53.4467 6.3688 53.4163 7.033C53.4118 7.12322 53.4152 7.21456 53.4152 7.30477C53.4152 11.3227 53.4152 15.3406 53.4152 19.3585C53.4152 19.7092 53.4614 19.725 53.0499 19.7239C51.6712 19.7227 50.2925 19.7239 48.9138 19.7239C48.8653 19.7239 48.8157 19.725 48.7672 19.7239C48.5767 19.716 48.5587 19.6968 48.5542 19.4994C48.5531 19.4295 48.5542 19.3607 48.5542 19.2908C48.5542 15.2526 48.5542 11.2133 48.5553 7.17509C48.5553 6.75447 48.4809 6.35414 48.2532 5.9978C47.8271 5.33134 47.2217 4.96598 46.4213 4.92989C45.6897 4.89719 45.0865 5.15092 44.6029 5.69558C44.2918 6.04629 44.1193 6.45563 44.0934 6.92475C44.0866 7.04992 44.0889 7.17509 44.0889 7.30026C44.0889 11.3114 44.0889 15.3214 44.0889 19.3326C44.0889 19.5927 43.9596 19.7231 43.7011 19.7239C42.3156 19.7239 40.9301 19.7239 39.5446 19.7239C39.2087 19.7239 39.2053 19.7216 39.2053 19.3878C39.2053 15.3079 39.1986 11.2268 39.2076 7.1469C39.2121 5.35502 39.8242 3.77966 41.0045 2.43322C42.0326 1.26044 43.32 0.51279 44.8374 0.159828C45.0944 0.100061 45.356 0.0583369 45.6209 0.036911C45.6694 0.033528 45.7178 0.026762 45.7618 0.00195313H46.8903C46.9342 0.026762 46.9816 0.0324003 47.0312 0.036911C48.4166 0.169977 49.6353 0.705622 50.7277 1.55251C51.0422 1.79608 50.9441 1.78368 51.2406 1.5604C52.2935 0.764261 53.4569 0.233126 54.7736 0.0549538C54.8897 0.0391664 55.0115 0.0549538 55.1219 0.00195313H56.2087L56.2064 0.00195312Z" fill="white"/>
<path d="M90.8033 0.00112767C90.9769 0.0597667 91.1607 0.0473623 91.3399 0.0687881C92.2666 0.1793 93.1572 0.418367 94.0117 0.7905C95.2202 1.316 96.2911 2.04109 97.2054 2.99285C98.1681 3.99648 98.8907 5.15122 99.3845 6.44917C99.7125 7.3141 99.9019 8.20947 99.9707 9.13191C99.9932 9.43074 100 9.72958 100 10.0284C100 13.134 100 16.2396 100 19.3441C100 19.5967 99.8738 19.723 99.6212 19.723C98.2143 19.723 96.8086 19.723 95.4017 19.723C95.0691 19.723 95.0669 19.7208 95.0669 19.3836C95.0669 17.956 95.0669 16.5295 95.0669 15.1018C95.0669 15.0206 95.0804 14.9372 95.0443 14.8481C94.9575 14.8729 94.9158 14.9406 94.8651 14.9924C93.3578 16.4979 91.8484 18.0022 90.3479 19.5144C90.1833 19.6802 90.0198 19.732 89.7921 19.714C89.2296 19.6678 88.6693 19.6136 88.1169 19.4941C86.5849 19.1648 85.2107 18.4995 83.9898 17.5241C82.4037 16.2554 81.3327 14.6338 80.7375 12.6976C80.4906 11.8958 80.37 11.0726 80.3407 10.2314C80.3057 9.24242 80.4016 8.27149 80.6575 7.31748C81.0396 5.88984 81.7081 4.60881 82.6607 3.47888C83.8917 2.01967 85.426 1.01152 87.2399 0.429644C87.9118 0.214258 88.6017 0.0811926 89.3063 0.0338302C89.3615 0.0304472 89.4179 0.0270642 89.4686 0H90.8056L90.8033 0.00112767ZM95.0657 11.9725C95.0657 11.2767 95.0578 10.5798 95.068 9.88407C95.0815 9.01125 94.8718 8.19594 94.422 7.45393C93.3398 5.67446 91.7379 4.84675 89.6715 4.99785C88.3965 5.09145 87.3278 5.67671 86.4846 6.63975C85.532 7.72908 85.116 8.99884 85.2896 10.4434C85.4486 11.7673 86.0776 12.8397 87.1069 13.6708C88.0098 14.4004 89.0515 14.7556 90.2194 14.7477C91.7232 14.7387 93.2271 14.7455 94.7309 14.7455C94.7862 14.7455 94.8425 14.7477 94.8978 14.7443C95.0319 14.7353 95.0533 14.715 95.0635 14.5831C95.068 14.5278 95.0657 14.4714 95.0657 14.4162C95.0657 13.602 95.0657 12.7867 95.0657 11.9725Z" fill="white"/>
<path d="M29.3388 0.00195312C29.491 0.0639752 29.6545 0.0493155 29.8123 0.0662306C31.58 0.262446 33.1627 0.91988 34.582 1.97764C35.9337 2.98465 36.9347 4.27584 37.6415 5.80271C38.0992 6.79281 38.3788 7.82914 38.4814 8.91171C38.5141 9.25791 38.5344 9.60523 38.5333 9.95368C38.531 13.0943 38.5321 16.2348 38.5321 19.3754C38.5321 19.607 38.416 19.7227 38.1838 19.7227C36.7701 19.7227 35.3565 19.7227 33.9428 19.7227C33.6046 19.7227 33.6012 19.7205 33.6012 19.3901C33.6012 17.9624 33.6012 16.5348 33.6012 15.1072C33.6012 15.026 33.6193 14.9403 33.5753 14.85C33.4874 14.8703 33.4423 14.9459 33.387 15.0012C31.9136 16.4728 30.4414 17.9444 28.9691 19.4171C28.9048 19.4814 28.8372 19.5423 28.7774 19.61C28.6951 19.7024 28.5948 19.725 28.4764 19.7193C27.5689 19.6742 26.675 19.5491 25.8069 19.2739C24.5793 18.8849 23.4621 18.2872 22.4611 17.4741C21.5197 16.7107 20.752 15.8007 20.1534 14.7486C19.4838 13.5713 19.0599 12.3139 18.9224 10.9629C18.8818 10.5615 18.848 10.1578 18.8559 9.75521C18.8908 7.88778 19.3891 6.15567 20.3924 4.57693C21.6539 2.59109 23.4114 1.23563 25.6333 0.477832C26.3481 0.234254 27.0865 0.0944224 27.8395 0.036911C27.8947 0.0324003 27.9511 0.030145 28.0007 0.00195313H29.3377L29.3388 0.00195312ZM33.6024 11.9801C33.6024 11.2764 33.6024 10.5739 33.6024 9.87023C33.6024 9.57027 33.59 9.27144 33.5302 8.97711C33.2957 7.83252 32.7456 6.87062 31.8437 6.12184C30.7852 5.24226 29.5587 4.85885 28.1935 4.99304C26.8576 5.12498 25.7517 5.73167 24.8995 6.76913C24.0585 7.79418 23.6718 8.9805 23.7969 10.3044C23.9187 11.5854 24.479 12.6612 25.4451 13.5126C26.3808 14.337 27.4754 14.7531 28.729 14.7497C30.2463 14.7452 31.7637 14.7497 33.2822 14.7486C33.3374 14.7486 33.3938 14.7463 33.449 14.7463C33.5539 14.7463 33.6001 14.691 33.6001 14.5896C33.6001 14.5264 33.6012 14.4644 33.6012 14.4012C33.6012 13.5938 33.6012 12.7864 33.6012 11.979L33.6024 11.9801Z" fill="white"/>
<path d="M18.2231 0.00195312C18.2265 0.0989331 18.2344 0.197041 18.2344 0.294021C18.2344 6.65185 18.2344 13.0097 18.2344 19.3675C18.2344 19.6043 18.116 19.7227 17.8793 19.7227C16.4938 19.7227 15.1072 19.7227 13.7217 19.7227C13.4918 19.7227 13.3764 19.6062 13.3757 19.3731C13.3757 17.1381 13.3757 14.9019 13.3757 12.6669C13.3757 12.4466 13.2648 12.3361 13.0431 12.3353C10.4525 12.3353 7.86193 12.3353 5.27135 12.3353C5.04664 12.3353 4.9339 12.4515 4.93315 12.6838C4.93315 14.8985 4.93315 17.1133 4.93315 19.3269C4.93315 19.7408 4.9433 19.7227 4.52732 19.7227C3.13508 19.7227 1.74171 19.7227 0.349469 19.7227C0.00338196 19.7227 0.00225464 19.7216 0.00225464 19.3731C0.00338196 14.6301 0.00450928 9.88828 0 5.14528C0 4.94117 0.059748 4.79457 0.2063 4.65023C1.45424 3.41768 2.69542 2.17611 3.93998 0.940178C4.21167 0.670664 4.48899 0.406788 4.76518 0.141785C4.799 0.109082 4.83169 0.0560815 4.8858 0.0797627C4.93879 0.102316 4.92977 0.162083 4.93202 0.209445C4.93428 0.279361 4.93315 0.348149 4.93315 0.418065C4.93315 2.64635 4.93315 4.87463 4.93315 7.10292C4.93315 7.32319 5.04476 7.43333 5.26797 7.43333C7.85855 7.43333 10.4491 7.43333 13.0397 7.43333C13.2637 7.43333 13.3757 7.32394 13.3757 7.10517C13.3757 4.73706 13.3757 2.37007 13.3757 0.00195313C14.9911 0.00195313 16.6065 0.00195312 18.2231 0.00195312Z" fill="white"/>
<path d="M74.8 0.00195312C74.8011 0.865752 74.8033 1.72842 74.8045 2.59222C74.8045 3.28912 74.8045 3.9849 74.8045 4.6818C74.8045 4.97049 74.7988 4.97725 74.5148 4.97725C72.9061 4.97725 71.2974 4.97725 69.6887 4.97725C69.5568 4.97725 69.4249 4.97387 69.2941 5.00883C68.7181 5.1667 68.3551 5.70235 68.4171 6.31242C68.478 6.9146 68.9582 7.38484 69.5579 7.42656C69.6414 7.4322 69.7248 7.43107 69.8082 7.43107C71.2286 7.43107 72.649 7.4322 74.0695 7.43107C75.5665 7.42882 76.8833 7.92274 78.0218 8.88239C79.1548 9.83753 79.8752 11.0487 80.1164 12.5135C80.4106 14.3099 80.0059 15.9495 78.873 17.3828C77.9102 18.6007 76.651 19.345 75.1224 19.6257C74.7661 19.6912 74.4043 19.7239 74.0424 19.725C72.4134 19.7284 70.7833 19.7239 69.1543 19.7295C68.9582 19.7295 68.8162 19.6742 68.6775 19.5322C67.9132 18.7507 67.1308 17.9861 66.3687 17.2024C65.636 16.448 64.8908 15.7071 64.1536 14.9572C64.1085 14.9109 64.0228 14.8703 64.06 14.7914C64.0904 14.7271 64.1716 14.7519 64.2325 14.7519C64.5594 14.7497 64.8874 14.7508 65.2144 14.7508C68.1251 14.7508 71.0358 14.7486 73.9466 14.7519C74.3434 14.7519 74.6861 14.6414 74.9657 14.3539C75.4493 13.8566 75.3839 13.0435 74.8327 12.6206C74.5722 12.421 74.2803 12.3387 73.9556 12.3387C72.5217 12.341 71.0866 12.3365 69.6526 12.3398C67.8173 12.3444 66.291 11.6373 65.0656 10.2954C64.166 9.31091 63.6451 8.13362 63.5223 6.80183C63.3825 5.29075 63.7229 3.88905 64.6112 2.64973C65.6506 1.19954 67.0587 0.32334 68.8297 0.0493155C68.9255 0.0346557 69.0258 0.0493155 69.116 0.0030808H74.7988L74.8 0.00195312Z" fill="white"/>
</svg>
