<svg width="137" height="27" viewBox="0 0 137 27" fill="none" xmlns="http://www.w3.org/2000/svg">
<path d="M76.9219 0.00146484C77.1116 0.0786297 77.3153 0.0647401 77.5128 0.0909761C79.3364 0.339447 80.9548 1.06634 82.368 2.22844C84.2271 3.75631 85.3734 5.72093 85.8177 8.08835C85.9195 8.63159 85.9627 9.18255 85.9627 9.73659C85.9627 15.3496 85.9627 20.9625 85.9627 26.5755C85.9627 26.594 85.9627 26.6141 85.9627 26.6326C85.9566 26.9598 85.9319 26.9907 85.5986 26.9907C83.5884 26.9922 81.5765 26.9922 79.5662 26.9907C79.2422 26.9907 79.2129 26.9583 79.2129 26.6234C79.2114 25.4705 79.2129 24.3177 79.2129 23.1648C79.2129 18.7047 79.2099 14.2446 79.216 9.78443C79.216 9.20724 79.1235 8.65937 78.7979 8.17786C78.2039 7.29509 77.397 6.77809 76.3032 6.74259C75.5272 6.7179 74.8344 6.91544 74.2266 7.40158C73.5153 7.9726 73.1451 8.71493 73.1034 9.62393C73.0972 9.74739 73.1019 9.8724 73.1019 9.99586C73.1019 15.4946 73.1019 20.9934 73.1019 26.4922C73.1019 26.9721 73.1651 26.9937 72.602 26.9922C70.7151 26.9907 68.8283 26.9922 66.9414 26.9922C66.8751 26.9922 66.8072 26.9937 66.7408 26.9922C66.4801 26.9814 66.4554 26.9552 66.4492 26.6851C66.4477 26.5894 66.4492 26.4953 66.4492 26.3996C66.4492 20.873 66.4492 15.3449 66.4508 9.81838C66.4508 9.24273 66.349 8.69486 66.0373 8.20718C65.4541 7.29509 64.6256 6.79506 63.5302 6.74568C62.529 6.70092 61.7036 7.04816 61.0417 7.79358C60.6159 8.27354 60.3798 8.83376 60.3443 9.47577C60.3351 9.64708 60.3382 9.81838 60.3382 9.98969C60.3382 15.4792 60.3382 20.9672 60.3382 26.4567C60.3382 26.8127 60.1613 26.9912 59.8074 26.9922C57.9113 26.9922 56.0152 26.9922 54.1191 26.9922C53.6593 26.9922 53.6547 26.9891 53.6547 26.5323C53.6547 20.9487 53.6454 15.3635 53.6578 9.7798C53.664 7.3275 54.5017 5.17151 56.117 3.32882C57.5241 1.72379 59.286 0.700579 61.3626 0.217527C61.7144 0.135732 62.0723 0.0786297 62.4348 0.0493071C62.5012 0.0446772 62.5675 0.0354174 62.6277 0.00146484H64.1721C64.2322 0.0354174 64.297 0.0431339 64.3649 0.0493071C66.261 0.231416 67.9288 0.964483 69.4238 2.1235C69.8542 2.45685 69.72 2.43988 70.1258 2.1343C71.5668 1.04473 73.1589 0.317841 74.9609 0.0739999C75.1199 0.0523937 75.2865 0.0739999 75.4377 0.00146484H76.9249L76.9219 0.00146484Z" fill="#97DE00"/>
<path d="M124.27 0.0015433C124.508 0.0817948 124.76 0.0648185 125.005 0.0941412C126.273 0.245384 127.492 0.572564 128.661 1.08185C130.315 1.80103 131.781 2.79337 133.032 4.09591C134.35 5.46945 135.339 7.04979 136.014 8.82612C136.463 10.0098 136.723 11.2352 136.817 12.4976C136.847 12.9066 136.857 13.3156 136.857 13.7245C136.857 17.9748 136.857 22.225 136.857 26.4737C136.857 26.8194 136.684 26.9923 136.338 26.9923C134.413 26.9923 132.489 26.9923 130.564 26.9923C130.108 26.9923 130.105 26.9892 130.105 26.5278C130.105 24.5739 130.105 22.6217 130.105 20.6678C130.105 20.5567 130.124 20.4425 130.075 20.3206C129.956 20.3546 129.899 20.4472 129.829 20.5181C127.766 22.5785 125.701 24.6372 123.647 26.7068C123.422 26.9336 123.198 27.0046 122.887 26.9799C122.117 26.9167 121.35 26.8426 120.594 26.679C118.497 26.2283 116.617 25.3178 114.946 23.9829C112.775 22.2466 111.309 20.0274 110.495 17.3775C110.157 16.2803 109.992 15.1536 109.952 14.0023C109.904 12.6489 110.035 11.3201 110.385 10.0145C110.908 8.06065 111.823 6.30746 113.127 4.76107C114.811 2.76405 116.911 1.38434 119.394 0.587997C120.313 0.293227 121.257 0.111117 122.222 0.0462989C122.297 0.041669 122.374 0.0370392 122.444 0H124.274L124.27 0.0015433ZM130.104 16.3852C130.104 15.433 130.093 14.4792 130.107 13.527C130.125 12.3325 129.838 11.2167 129.223 10.2012C127.742 7.76588 125.549 6.6331 122.721 6.8399C120.977 6.96799 119.514 7.76896 118.36 9.08694C117.056 10.5778 116.487 12.3155 116.725 14.2925C116.942 16.1043 117.803 17.572 119.212 18.7094C120.447 19.7079 121.873 20.1941 123.471 20.1833C125.529 20.1709 127.588 20.1802 129.646 20.1802C129.721 20.1802 129.798 20.1833 129.874 20.1786C130.058 20.1663 130.087 20.1385 130.101 19.9579C130.107 19.8823 130.104 19.8051 130.104 19.7295C130.104 18.6153 130.104 17.4995 130.104 16.3852Z" fill="#97DE00"/>
<path d="M40.1519 0.00146484C40.3602 0.0863462 40.5839 0.0662834 40.7999 0.0894328C43.219 0.357967 45.3851 1.25771 47.3275 2.70532C49.1774 4.08349 50.5474 5.85056 51.5147 7.94019C52.1411 9.29521 52.5237 10.7135 52.6641 12.1951C52.7089 12.6689 52.7366 13.1442 52.7351 13.6211C52.732 17.9192 52.7335 22.2172 52.7335 26.5153C52.7335 26.8322 52.5746 26.9907 52.2568 26.9907C50.3221 26.9907 48.3874 26.9907 46.4528 26.9907C45.9899 26.9907 45.9853 26.9876 45.9853 26.5354C45.9853 24.5816 45.9853 22.6278 45.9853 20.6739C45.9853 20.5628 46.01 20.4455 45.9498 20.3221C45.8295 20.3498 45.7677 20.4533 45.6921 20.5289C43.6757 22.5429 41.6608 24.5569 39.6459 26.5724C39.5579 26.6604 39.4654 26.7437 39.3836 26.8363C39.271 26.9629 39.1336 26.9937 38.9717 26.986C37.7297 26.9243 36.5062 26.753 35.3183 26.3764C33.6381 25.844 32.1092 25.026 30.7392 23.9133C29.451 22.8685 28.4003 21.6231 27.5811 20.1832C26.6646 18.572 26.0845 16.8512 25.8963 15.0023C25.8408 14.4529 25.7945 13.9004 25.8053 13.3494C25.8531 10.7937 26.535 8.42324 27.9081 6.26263C29.6345 3.54488 32.0398 1.68983 35.0807 0.652737C36.0588 0.319384 37.0694 0.128015 38.1 0.0493071C38.1756 0.0431339 38.2527 0.0400473 38.3206 0.00146484H40.1504L40.1519 0.00146484ZM45.9868 16.3944C45.9868 15.4314 45.9868 14.4699 45.9868 13.5069C45.9868 13.0963 45.9699 12.6874 45.8881 12.2846C45.5672 10.7181 44.8143 9.40169 43.58 8.37694C42.1313 7.17317 40.4528 6.64845 38.5844 6.8321C36.7562 7.01267 35.2427 7.84296 34.0763 9.2628C32.9254 10.6657 32.3962 12.2892 32.5674 14.101C32.7341 15.8542 33.5008 17.3265 34.823 18.4917C36.1036 19.6199 37.6016 20.1893 39.3172 20.1847C41.3939 20.1785 43.4705 20.1847 45.5487 20.1832C45.6243 20.1832 45.7014 20.1801 45.777 20.1801C45.9205 20.1801 45.9837 20.1045 45.9837 19.9656C45.9837 19.8791 45.9853 19.7943 45.9853 19.7078C45.9853 18.6028 45.9853 17.4978 45.9853 16.3928L45.9868 16.3944Z" fill="#97DE00"/>
<path d="M24.9396 0.00195312C24.9442 0.134677 24.955 0.268944 24.955 0.401667C24.955 9.10278 24.955 17.8039 24.955 26.505C24.955 26.8291 24.793 26.9911 24.469 26.9911C22.5729 26.9911 20.6752 26.9911 18.7791 26.9911C18.4644 26.9911 18.3065 26.8317 18.3055 26.5127C18.3055 23.4539 18.3055 20.3936 18.3055 17.3347C18.3055 17.0333 18.1538 16.882 17.8503 16.881C14.305 16.881 10.7596 16.881 7.21419 16.881C6.90666 16.881 6.75238 17.04 6.75135 17.3579C6.75135 20.3889 6.75135 23.42 6.75135 26.4495C6.75135 27.0158 6.76523 26.9911 6.19594 26.9911C4.29056 26.9911 2.38365 26.9911 0.478272 26.9911C0.00462843 26.9911 0.00308563 26.9896 0.00308563 26.5127C0.00462844 20.0216 0.00617125 13.532 0 7.04094C0 6.7616 0.0817691 6.56097 0.282335 6.36343C1.99023 4.6766 3.68886 2.97743 5.39213 1.28598C5.76395 0.917129 6.14348 0.555997 6.52147 0.193322C6.56775 0.148566 6.61249 0.0760314 6.68655 0.108441C6.75906 0.139307 6.74672 0.221101 6.7498 0.28592C6.75289 0.381604 6.75135 0.475746 6.75135 0.57143C6.75135 3.62099 6.75135 6.67054 6.75135 9.7201C6.75135 10.0216 6.90409 10.1723 7.20956 10.1723C10.7549 10.1723 14.3003 10.1723 17.8457 10.1723C18.1522 10.1723 18.3055 10.0226 18.3055 9.72319C18.3055 6.48226 18.3055 3.24288 18.3055 0.00195313C20.5163 0.00195313 22.7272 0.00195312 24.9396 0.00195312Z" fill="#97DE00"/>
<path d="M102.369 0.00146484C102.37 1.18363 102.373 2.36425 102.375 3.54642C102.375 4.50018 102.375 5.45239 102.375 6.40615C102.375 6.80124 102.367 6.8105 101.979 6.8105C99.7769 6.8105 97.5753 6.8105 95.3737 6.8105C95.1932 6.8105 95.0127 6.80587 94.8338 6.85371C94.0454 7.06977 93.5486 7.80284 93.6334 8.63776C93.7168 9.46188 94.374 10.1054 95.1948 10.1625C95.3089 10.1703 95.4231 10.1687 95.5373 10.1687C97.4812 10.1687 99.4252 10.1703 101.369 10.1687C103.418 10.1656 105.22 10.8416 106.778 12.1549C108.329 13.4621 109.315 15.1196 109.645 17.1244C110.047 19.5828 109.494 21.8268 107.943 23.7883C106.625 25.4551 104.902 26.4737 102.81 26.8579C102.323 26.9475 101.827 26.9922 101.332 26.9937C99.1027 26.9984 96.8718 26.9922 94.6424 26.9999C94.374 26.9999 94.1796 26.9243 93.9898 26.7298C92.9438 25.6603 91.8731 24.614 90.8302 23.5414C89.8273 22.5089 88.8075 21.495 87.7985 20.4687C87.7368 20.4054 87.6196 20.3499 87.6705 20.2418C87.7121 20.1539 87.8232 20.1878 87.9065 20.1878C88.3539 20.1847 88.8029 20.1863 89.2503 20.1863C93.2339 20.1863 97.2174 20.1832 101.201 20.1878C101.744 20.1878 102.213 20.0366 102.596 19.643C103.258 18.9624 103.168 17.8497 102.414 17.271C102.057 16.9978 101.658 16.8851 101.213 16.8851C99.2508 16.8882 97.2868 16.8821 95.3244 16.8867C92.8127 16.8929 90.7237 15.9252 89.0467 14.0887C87.8155 12.7414 87.1027 11.1302 86.9345 9.30755C86.7432 7.23953 87.2092 5.32121 88.4249 3.62513C89.8474 1.64045 91.7744 0.441305 94.1981 0.0662834C94.3293 0.0462205 94.4666 0.0662834 94.59 0.00300814H102.367L102.369 0.00146484Z" fill="#97DE00"/>
</svg>
