<svg width="261" height="61" viewBox="0 0 261 61" fill="none" xmlns="http://www.w3.org/2000/svg">
<g clip-path="url(#clip0_4239_6157)">
<path d="M260.818 48.9839C260.818 42.348 255.439 36.9688 248.803 36.9688H236.788V48.9839C236.788 55.6198 242.167 60.9991 248.803 60.9991C255.439 60.9991 260.818 55.6198 260.818 48.9839Z" fill="#97DE00"/>
<path d="M216.743 39.2342C212.861 39.2342 209.728 39.0956 207.344 38.8183C204.959 38.5965 203.101 38.1251 201.77 37.4042C200.495 36.6833 199.635 35.6574 199.192 34.3265C198.748 32.9956 198.526 31.2765 198.526 29.1692C198.526 26.3411 198.804 24.2061 199.358 22.7642C199.913 21.267 200.883 20.2411 202.27 19.6865C203.656 19.132 205.514 18.8547 207.843 18.8547C209.229 18.8547 210.81 18.8824 212.584 18.9379C214.414 18.9379 216.189 18.9656 217.908 19.0211C219.682 19.0765 221.207 19.1874 222.483 19.3538C223.814 19.4647 224.729 19.5756 225.228 19.6865C225.228 17.9674 225.061 16.6088 224.729 15.6106C224.451 14.6124 223.98 13.8638 223.315 13.3647C222.649 12.8102 221.762 12.4497 220.653 12.2833C219.544 12.117 218.185 12.0338 216.577 12.0338C214.636 12.0338 212.695 12.0615 210.754 12.117C208.869 12.1724 207.011 12.2833 205.181 12.4497C203.406 12.6161 201.77 12.8102 200.273 13.032V10.7029C200.273 9.20562 200.606 8.09653 201.271 7.37562C201.937 6.65471 202.852 6.18335 204.016 5.96153C205.292 5.68425 207.177 5.49016 209.673 5.37925C212.224 5.26835 214.969 5.21289 217.908 5.21289C221.623 5.21289 224.729 5.40698 227.224 5.79516C229.775 6.18334 231.771 6.87653 233.213 7.87471C234.655 8.87289 235.681 10.3702 236.291 12.3665C236.901 14.3074 237.206 16.9138 237.206 20.1856V36.7388C236.319 37.5706 234.1 38.2083 230.551 38.652C227.058 39.0401 222.455 39.2342 216.743 39.2342ZM216.66 34.077C218.213 34.077 219.516 34.0492 220.57 33.9938C221.679 33.8829 222.621 33.7442 223.398 33.5779C224.174 33.4115 224.784 33.2174 225.228 32.9956V23.6792C224.618 23.5129 223.758 23.3742 222.649 23.2633C221.595 23.1524 220.514 23.0692 219.405 23.0138C218.296 22.9583 217.436 22.9306 216.826 22.9306C215.495 22.9306 214.414 23.0415 213.582 23.2633C212.75 23.4851 212.14 23.9842 211.752 24.7606C211.42 25.537 211.253 26.7292 211.253 28.3374C211.253 29.7238 211.392 30.8606 211.669 31.7479C211.946 32.5797 212.473 33.1897 213.25 33.5779C214.026 33.9106 215.163 34.077 216.66 34.077Z" fill="white"/>
<path d="M173.706 39.1561C172.375 39.1561 170.961 39.1283 169.463 39.0729C167.966 39.0174 166.469 38.9065 164.972 38.7401C163.53 38.5738 162.199 38.3242 160.979 37.9915C159.981 37.7697 159.149 37.4924 158.483 37.1597C157.873 36.7715 157.402 36.0783 157.069 35.0801C156.792 34.0265 156.653 32.3906 156.653 30.1724C158.372 30.7824 160.147 31.2815 161.977 31.6697C163.807 32.0024 165.582 32.252 167.301 32.4183C169.075 32.5292 170.711 32.5847 172.208 32.5847C173.262 32.5847 174.399 32.5847 175.619 32.5847C176.894 32.5292 178.114 32.3906 179.279 32.1688C180.443 31.8915 181.414 31.4756 182.19 30.9211C182.967 30.3111 183.355 29.4792 183.355 28.4256C183.355 27.1501 183.022 26.3183 182.356 25.9301C181.691 25.542 180.804 25.3479 179.695 25.3479H170.212C167.661 25.3479 165.387 25.2092 163.391 24.932C161.45 24.6547 159.897 23.9061 158.733 22.6861C157.624 21.4106 157.069 19.2756 157.069 16.2811C157.069 13.0093 157.873 10.5971 159.481 9.04433C161.145 7.43615 163.502 6.38249 166.552 5.8834C169.602 5.38431 173.262 5.13477 177.532 5.13477C179.085 5.13477 180.887 5.16251 182.939 5.21797C185.045 5.27342 186.875 5.41206 188.428 5.63387C190.147 5.80024 191.478 6.07749 192.421 6.46567C193.419 6.79842 194.14 7.35295 194.583 8.12931C195.027 8.85022 195.249 9.98706 195.249 11.5398V13.8689C194.916 13.3143 194.057 12.8984 192.67 12.6211C191.339 12.2884 189.703 12.0666 187.763 11.9557C185.877 11.8448 183.882 11.7893 181.774 11.7893C179.722 11.7893 177.809 11.7893 176.035 11.7893C174.815 11.7893 173.678 11.8725 172.624 12.0389C171.626 12.1498 170.822 12.4825 170.212 13.0371C169.602 13.5361 169.297 14.3679 169.297 15.5325C169.297 16.4198 169.491 17.0852 169.879 17.5289C170.267 17.9171 170.794 18.1666 171.46 18.2775C172.125 18.3884 172.874 18.4439 173.706 18.4439H184.27C186.598 18.4439 188.65 18.6656 190.424 19.1092C192.199 19.4974 193.558 20.3847 194.5 21.7711C195.443 23.102 195.914 25.2092 195.914 28.0929C195.914 31.4201 194.972 33.8601 193.086 35.4129C191.201 36.9656 188.594 37.9915 185.267 38.4906C181.941 38.9342 178.086 39.1561 173.706 39.1561Z" fill="white"/>
<path d="M101.622 38.8227C99.7364 38.8227 98.4887 38.5454 97.8787 37.9908C97.3241 37.4363 97.0469 36.1886 97.0469 34.2477V7.71271C97.8787 7.43543 98.9601 7.18589 100.291 6.96407C101.677 6.6868 103.175 6.43725 104.783 6.21543C106.391 5.99362 108.027 5.82725 109.691 5.71634C111.41 5.54998 112.99 5.4668 114.432 5.4668C116.65 5.4668 118.563 5.63316 120.171 5.96589C121.78 6.29862 123.138 6.93634 124.247 7.87907C125.412 8.8218 126.382 10.2359 127.159 12.1213L125.412 12.0382C125.911 10.5963 126.632 9.4318 127.575 8.54452C128.517 7.65725 129.626 7.01952 130.902 6.63134C132.177 6.18771 133.425 5.88271 134.645 5.71634C135.865 5.54998 136.974 5.4668 137.972 5.4668C141.799 5.4668 144.821 5.79952 147.039 6.46498C149.257 7.07498 150.838 8.23952 151.781 9.95862C152.779 11.6223 153.278 13.9791 153.278 17.0291V34.6636C153.278 36.4936 152.945 37.6581 152.28 38.1572C151.67 38.6008 150.505 38.8227 148.786 38.8227H140.884C140.884 35.1072 140.884 31.4195 140.884 27.7595C140.884 24.044 140.884 20.3286 140.884 16.6132C140.828 14.4504 140.385 13.0363 139.553 12.3709C138.776 11.7054 137.584 11.3727 135.976 11.3727C135.2 11.3727 134.451 11.4836 133.73 11.7054C133.065 11.9273 132.51 12.2323 132.066 12.6204C131.623 13.0086 131.401 13.48 131.401 14.0345V38.8227H118.924V15.6982C118.924 14.2009 118.48 13.1473 117.593 12.5373C116.761 11.8718 115.569 11.5391 114.016 11.5391C113.129 11.5391 112.352 11.6223 111.687 11.7886C111.021 11.8995 110.495 12.0936 110.106 12.3709C109.718 12.5927 109.496 12.9532 109.441 13.4523V38.8227H101.622Z" fill="white"/>
<path d="M71.7627 39.2342C67.8809 39.2342 64.7477 39.0956 62.3632 38.8183C59.9786 38.5965 58.1209 38.1251 56.79 37.4042C55.5145 36.6833 54.655 35.6574 54.2114 34.3265C53.7677 32.9956 53.5459 31.2765 53.5459 29.1692C53.5459 26.3411 53.8232 24.2061 54.3777 22.7642C54.9323 21.267 55.9027 20.2411 57.2891 19.6865C58.6754 19.132 60.5332 18.8547 62.8623 18.8547C64.2486 18.8547 65.8291 18.8824 67.6036 18.9379C69.4336 18.9379 71.2082 18.9656 72.9273 19.0211C74.7018 19.0765 76.2268 19.1874 77.5023 19.3538C78.8332 19.4647 79.7482 19.5756 80.2473 19.6865C80.2473 17.9674 80.0809 16.6088 79.7482 15.6106C79.4709 14.6124 78.9995 13.8638 78.3341 13.3647C77.6686 12.8102 76.7814 12.4497 75.6723 12.2833C74.5632 12.117 73.2045 12.0338 71.5964 12.0338C69.6554 12.0338 67.7145 12.0615 65.7736 12.117C63.8882 12.1724 62.0304 12.2833 60.2004 12.4497C58.4259 12.6161 56.79 12.8102 55.2927 13.032V10.7029C55.2927 9.20562 55.6254 8.09653 56.2909 7.37562C56.9564 6.65471 57.8714 6.18335 59.0359 5.96153C60.3114 5.68425 62.1968 5.49016 64.6923 5.37925C67.2432 5.26835 69.9882 5.21289 72.9273 5.21289C76.6427 5.21289 79.7482 5.40698 82.2436 5.79516C84.7945 6.18334 86.7909 6.87653 88.2327 7.87471C89.6745 8.87289 90.7004 10.3702 91.3104 12.3665C91.9204 14.3074 92.2254 16.9138 92.2254 20.1856V36.7388C91.3382 37.5706 89.12 38.2083 85.5709 38.652C82.0773 39.0401 77.4745 39.2342 71.7627 39.2342ZM71.6795 34.077C73.2323 34.077 74.5354 34.0492 75.5891 33.9938C76.6982 33.8829 77.6409 33.7442 78.4173 33.5779C79.1936 33.4115 79.8036 33.2174 80.2473 32.9956V23.6792C79.6373 23.5129 78.7777 23.3742 77.6686 23.2633C76.615 23.1524 75.5336 23.0692 74.4245 23.0138C73.3154 22.9583 72.4559 22.9306 71.8459 22.9306C70.515 22.9306 69.4336 23.0415 68.6018 23.2633C67.77 23.4851 67.16 23.9842 66.7718 24.7606C66.4391 25.537 66.2727 26.7292 66.2727 28.3374C66.2727 29.7238 66.4113 30.8606 66.6886 31.7479C66.9659 32.5797 67.4927 33.1897 68.2691 33.5779C69.0454 33.9106 70.1823 34.077 71.6795 34.077Z" fill="white"/>
<path d="M1.66504 38.8203V4.383C1.66504 2.71937 1.99777 1.66573 2.66321 1.2221C3.38412 0.778459 4.5764 0.556641 6.24003 0.556641H15.3068V15.4462H34.1059V0.556641H47.7477V34.4949C47.7477 36.2139 47.4704 37.3785 46.9159 37.9885C46.3613 38.543 45.0859 38.8203 43.0895 38.8203H34.1059V22.5167H15.3068V38.8203H1.66504Z" fill="white"/>
</g>
<defs>
<clipPath id="clip0_4239_6157">
<rect width="260.636" height="61" fill="white" transform="translate(0.181641)"/>
</clipPath>
</defs>
</svg>
