<svg width="335" height="337" viewBox="0 0 335 337" fill="none" xmlns="http://www.w3.org/2000/svg">
<g clip-path="url(#clip0_1040_2381)">
<g style="mix-blend-mode:difference">
<path d="M168.242 40.7737L166.583 61.4487H165.702L164.043 40.7737H168.242ZM158.537 8.89513L162.043 61.5286L162.923 61.4987L162.734 8.75036L158.537 8.89679V8.89513ZM153.817 20.3184L158.388 61.7333L159.267 61.6717L158.006 20.0255L153.817 20.3167V20.3184ZM150.032 33.2226L154.746 62.0661L155.621 61.9746L154.209 32.7849L150.034 33.2226H150.032ZM140.962 2.46716L151.113 62.5253L151.985 62.4039L145.121 1.88477L140.962 2.46716ZM139.709 28.6217L147.501 63.1111L148.368 62.9596L143.845 27.8962L139.709 28.6217ZM130.414 8.53405L143.911 63.8216L144.774 63.6385L134.523 7.66378L130.415 8.53405H130.414ZM128.325 23.4583L140.349 64.6552L141.203 64.4439L132.399 22.4483L128.323 23.46L128.325 23.4583ZM117.225 3.56373L136.818 65.6137L137.666 65.3724L121.262 2.41058L117.225 3.56373ZM122.723 39.5524L133.323 66.6936L134.16 66.4224L126.716 38.2595L122.723 39.5524ZM122.679 53.0606L129.867 67.895L130.694 67.5955L126.626 51.6312L122.679 53.0623V53.0606ZM105.985 23.1704L126.455 69.2145L127.272 68.8867L109.88 21.6046L105.987 23.1721L105.985 23.1704ZM95.0186 11.9236L123.093 70.6539L123.897 70.2978L98.8551 10.2213L95.0186 11.9219V11.9236ZM93.9375 23.2104L119.782 72.2081L120.574 71.8237L97.7122 21.3767L93.9375 23.2104ZM94.504 36.1479L116.527 73.8754L117.304 73.4644L98.2101 34.1844L94.5023 36.1479H94.504ZM80.4164 22.1837L113.334 75.6575L114.096 75.2182L84.054 20.0921L80.4181 22.1837H80.4164ZM74.1973 23.2786L110.206 77.5478L110.953 77.0835L77.758 21.0622L74.1973 23.2786ZM77.25 38.3626L107.145 79.5446L107.875 79.0537L80.7306 36.0231L77.2484 38.361L77.25 38.3626ZM77.2617 47.5977L104.155 81.6478L104.867 81.132L80.6587 45.1384L77.2617 47.5961V47.5977ZM61.8424 36.3176L101.243 83.8526L101.936 83.3135L65.1525 33.7434L61.8424 36.3176ZM74.9943 60.9429L98.4072 86.1589L99.0823 85.5948L78.2108 58.2539L74.9943 60.9412V60.9429ZM57.5716 48.9106L95.6552 88.5617L96.3102 87.9743L60.6929 46.1118L57.5716 48.9106ZM48.0256 47.0686L92.9901 91.0577L93.6234 90.4486L51.0466 44.1633L48.0256 47.0686ZM58.6343 65.3841L90.4119 93.6468L91.0234 93.0162L61.5517 62.3756L58.6343 65.3841ZM40.6351 56.1406L87.9272 96.3225L88.5171 95.6702L43.4456 53.0323L40.6351 56.1406ZM42.1974 65.0246L85.5378 99.0831L86.1042 98.4108L44.8976 61.8198L42.1991 65.023L42.1974 65.0246ZM66.4358 90.9428L83.247 101.925L83.7883 101.235L69.0207 87.6482L66.4358 90.9445V90.9428ZM67.5687 97.1295L81.0564 104.845L81.5744 104.137L70.0383 93.7467L67.5704 97.1295H67.5687ZM39.3552 83.2236L78.9694 107.839L79.4623 107.112L41.7045 79.7559L39.3568 83.2236H39.3552ZM43.9352 92.284L76.9894 110.904L77.4555 110.16L46.1608 88.7381L43.9352 92.284ZM28.9303 89.3887L75.1179 114.036L75.5591 113.277L31.0306 85.7679L28.9303 89.3904V89.3887ZM34.3858 98.469L73.3568 117.232L73.7695 116.458L36.3575 94.7767L34.3858 98.469ZM18.2564 96.3624L71.7092 120.485L72.0952 119.696L20.0978 92.6018L18.2564 96.3608V96.3624ZM34.5178 109.794L70.1753 123.795L70.5329 122.994L36.2255 105.974L34.5178 109.794ZM10.8559 105.641L68.7601 127.156L69.0892 126.342L12.4282 101.762L10.8542 105.639L10.8559 105.641ZM16.1694 113.731L67.4634 130.564L67.7642 129.74L17.6064 109.801L16.1694 113.731ZM27.7439 123.282L66.2854 134.015L66.5578 133.181L29.0422 119.305L27.7439 123.282ZM21.0251 126.602L65.2294 137.506L65.4717 136.662L22.1814 122.582L21.0235 126.602H21.0251ZM7.6377 128.665L64.2987 141.03L64.5109 140.18L8.65363 124.609L7.6377 128.667V128.665ZM13.7917 135.754L63.4883 144.583L63.6721 143.726L14.6656 131.664L13.7934 135.754H13.7917ZM2.35926 139.23L62.8066 148.166L62.9586 147.302L3.08945 135.11L2.36093 139.228L2.35926 139.23ZM10.9562 146.257L62.2485 151.766L62.3705 150.898L11.5393 142.115L10.9545 146.257H10.9562ZM21.62 152.841L61.8191 155.387L61.9109 154.515L22.0594 148.683L21.62 152.841ZM1.78613 156.517L61.5133 159.02L61.5751 158.145L2.08022 152.344L1.7878 156.515L1.78613 156.517ZM9.99371 162.527L61.3378 162.659L61.3679 161.782L10.1391 158.348L9.99204 162.527H9.99371ZM25.7288 167.957L61.2894 166.305V165.428L25.7288 163.775V167.957ZM8.52329 173.438L61.3679 169.947L61.3378 169.07L8.37625 169.258L8.52329 173.438ZM24.4923 177.826L61.5751 173.586L61.5133 172.711L24.1982 173.653L24.4906 177.824L24.4923 177.826ZM14.4417 183.846L61.9093 177.217L61.8174 176.345L14.0023 179.688L14.4417 183.848V183.846ZM34.2605 186.436L62.3721 180.833L62.2501 179.964L33.6774 182.294L34.2622 186.436H34.2605ZM22.3084 193.245L62.9586 184.429L62.8066 183.565L21.5799 189.126L22.3084 193.245ZM33.1627 196.152L63.6721 188.003L63.4883 187.146L32.2888 192.061L33.1627 196.152ZM26.1549 202.778L64.5109 191.551L64.2987 190.7L25.1406 198.719L26.1565 202.778H26.1549ZM37.4236 204.798L65.4717 195.068L65.2294 194.225L36.2656 200.776L37.4236 204.796V204.798ZM33.3749 211.024L66.5578 198.549L66.2854 197.716L32.0766 207.047L33.3749 211.024ZM46.1993 211.565L67.7642 201.99L67.4634 201.167L44.7639 207.636L46.2009 211.567L46.1993 211.565ZM43.2534 217.565L69.0909 205.387L68.7617 204.573L41.6811 213.687L43.2551 217.564L43.2534 217.565ZM21.4613 232.303L70.5329 208.736L70.1753 207.936L19.7536 228.483L21.4613 232.303ZM31.6505 233.515L72.0936 212.033L71.7076 211.244L29.8092 229.756L31.6505 233.515ZM29.6037 240.532L73.7695 215.274L73.3568 214.5L27.632 236.839L29.6037 240.532ZM26.6361 248.489L75.5574 218.452L75.1163 217.694L24.5357 244.866L26.6361 248.489ZM37.4286 248.426L77.4555 221.569L76.9894 220.825L35.2046 244.878L37.4303 248.424L37.4286 248.426ZM53.3241 244.169L79.4623 224.619L78.9694 223.892L50.9748 240.703L53.3224 244.171L53.3241 244.169ZM51.5228 251.379L81.5727 227.594L81.0547 226.885L49.0532 247.996L51.5212 251.379H51.5228ZM66.4241 246.104L83.7883 230.496L83.247 229.806L63.8392 242.808L66.4241 246.104ZM61.2225 256.268L86.1042 233.32L85.5378 232.648L58.5223 253.065L61.2209 256.268H61.2225ZM73.5289 251.722L88.5154 236.061L87.9256 235.408L70.7184 248.614L73.5289 251.722ZM72.3258 258.994L91.0234 238.715L90.4119 238.084L69.4084 255.985L72.3258 258.994ZM81.6161 256.042L93.6217 241.282L92.9884 240.673L78.5951 253.136L81.6161 256.042ZM61.8157 284.376L96.3102 243.756L95.6552 243.169L58.6944 281.577L61.8157 284.376ZM69.9063 283.333L99.0823 246.136L98.4072 245.572L66.6881 280.644L69.9046 283.333H69.9063ZM82.1809 276.282L101.936 248.417L101.243 247.878L78.8725 273.708L82.1826 276.282H82.1809ZM81.3254 285.679L104.869 250.599L104.157 250.083L77.9284 283.221L81.3254 285.679ZM81.145 295.095L107.875 252.677L107.145 252.186L77.6644 292.756L81.1466 295.094L81.145 295.095ZM89.1537 292.508L110.953 254.649L110.206 254.185L85.5929 290.291L89.1537 292.508ZM95.0972 292.591L114.097 256.513L113.335 256.073L91.4595 290.499L95.0972 292.591ZM97.6603 298.581L117.305 258.266L116.528 257.855L93.9526 296.618L97.6603 298.581ZM99.2795 307.156L120.574 259.907L119.782 259.523L95.5049 305.322L99.2795 307.156ZM108.769 299.334L123.897 261.433L123.093 261.077L104.934 297.633L108.77 299.334H108.769ZM110.276 309.149L127.272 262.844L126.455 262.516L106.381 307.584L110.274 309.151L110.276 309.149ZM120.306 297.388L130.694 264.135L129.867 263.836L116.361 295.957L120.308 297.388H120.306ZM123.571 303.107L134.16 265.307L133.323 265.036L119.578 301.815L123.571 303.107ZM123.314 322.19L137.664 266.358L136.817 266.117L119.277 321.037L123.314 322.19ZM130.08 318.546L141.203 267.289L140.349 267.077L126.006 317.536L130.081 318.548L130.08 318.546ZM134.157 325.779L144.774 268.091L143.911 267.908L130.048 324.909L134.155 325.779H134.157ZM143.98 303.074L148.368 268.773L147.501 268.62L139.844 302.349L143.98 303.074ZM146.62 319.216L151.985 269.327L151.113 269.205L142.461 318.634L146.62 319.216ZM152.921 311.146L155.621 269.756L154.746 269.665L148.745 310.71L152.923 311.148L152.921 311.146ZM156.368 335.041L159.267 270.059L158.388 269.997L152.178 334.748L156.367 335.039L156.368 335.041ZM163.231 308.813L162.923 270.234L162.043 270.204L159.033 308.667L163.231 308.813ZM168.242 318.04L166.583 270.284H165.702L164.043 318.04H168.242ZM174.179 335.131L170.242 270.204L169.361 270.234L169.981 335.277L174.179 335.131ZM179.758 329.794L173.896 269.997L173.017 270.059L175.569 330.086L179.758 329.794ZM185.725 331.398L177.541 269.665L176.665 269.756L181.549 331.834L185.726 331.397L185.725 331.398ZM188.894 312.061L181.171 269.205L180.299 269.327L184.737 312.642L188.896 312.06L188.894 312.061ZM196.967 327.907L184.784 268.621L183.917 268.774L192.831 328.635L196.967 327.909V327.907ZM195.294 292.39L188.373 267.909L187.513 268.092L191.187 293.26L195.294 292.391V292.39ZM202.923 304.129L191.936 267.076L191.082 267.287L198.848 305.141L202.923 304.129ZM203.467 287.904L195.466 266.117L194.619 266.358L199.428 289.057L203.465 287.904H203.467ZM205.513 279.767L198.963 265.037L198.126 265.308L201.52 281.06L205.513 279.767ZM226.31 324.373L202.417 263.836L201.59 264.135L222.363 325.804L226.31 324.373ZM219.598 292.04L205.829 262.515L205.012 262.842L215.703 293.606L219.596 292.039L219.598 292.04ZM233.293 310.92L209.191 261.077L208.387 261.433L229.456 312.62L233.293 310.92ZM235.052 301.795L212.503 259.523L211.711 259.907L231.277 303.628L235.052 301.795ZM235.669 291.629L215.756 257.855L214.979 258.266L231.961 293.593L235.669 291.629ZM242.341 293.115L218.949 256.073L218.187 256.513L238.705 295.207L242.342 293.115H242.341ZM241.935 282.709L222.079 254.183L221.332 254.647L238.372 284.923L241.933 282.707L241.935 282.709ZM237.704 267.779L225.14 252.186L224.41 252.677L234.222 270.119L237.704 267.781V267.779ZM245.851 271.563L228.129 250.083L227.418 250.599L242.454 274.021L245.851 271.563ZM260.831 283.163L231.042 247.878L230.348 248.417L257.521 285.737L260.831 283.163ZM257.847 271.448L233.877 245.572L233.202 246.136L254.63 274.138L257.847 271.45V271.448ZM274.898 283.025L236.629 243.169L235.974 243.756L271.777 285.824L274.898 283.025ZM270.292 270.257L239.296 240.673L238.663 241.282L267.271 273.162L270.292 270.257ZM281.079 273.49L241.873 238.084L241.261 238.715L278.162 276.499L281.079 273.49ZM265.707 252.328L244.357 235.408L243.768 236.061L262.896 255.436L265.707 252.328ZM270.13 250.03L246.747 232.648L246.18 233.32L267.429 253.235L270.128 250.031L270.13 250.03ZM277.849 250.125L249.038 229.806L248.496 230.496L275.264 253.419L277.849 250.125ZM285.485 249.629L251.228 226.885L250.71 227.594L283.016 253.012L285.484 249.629H285.485ZM293.8 249.091L253.315 223.89L252.822 224.617L291.451 252.559L293.798 249.091H293.8ZM283.612 236.498L255.297 220.827L254.831 221.571L281.388 240.046L283.614 236.5L283.612 236.498ZM290.779 235.112L257.167 217.695L256.726 218.454L288.679 238.733L290.779 235.112ZM284.099 225.955L258.928 214.499L258.515 215.272L282.127 229.646L284.099 225.954V225.955ZM290.65 224.013L260.577 211.246L260.191 212.034L288.809 227.774L290.65 224.015V224.013ZM280.989 214.497L262.109 207.934L261.752 208.735L279.283 218.316L280.991 214.495L280.989 214.497ZM309.674 221.359L263.525 204.573L263.195 205.387L308.101 225.236L309.675 221.359H309.674ZM303.618 213.47L264.821 201.167L264.52 201.99L302.183 217.401L303.62 213.47H303.618ZM310.519 210.384L265.999 197.716L265.727 198.549L309.221 214.361L310.519 210.384ZM303.531 202.922L267.055 194.225L266.813 195.068L302.375 206.943L303.533 202.922H303.531ZM310.254 199.493L267.986 190.702L267.774 191.552L309.238 203.551L310.254 199.493ZM307.538 193.657L268.795 187.146L268.611 188.003L306.664 197.747L307.538 193.657ZM292.121 185.863L269.48 183.565L269.326 184.429L291.391 189.982L292.119 185.863H292.121ZM300.93 182.618L270.034 179.963L269.912 180.831L300.345 186.76L300.93 182.618ZM316.334 179.483L270.466 176.344L270.374 177.215L315.895 183.642L316.334 179.483ZM308.935 173.713L270.77 172.713L270.708 173.588L308.641 177.886L308.934 173.714L308.935 173.713ZM322.493 169.21L270.945 169.07L270.915 169.947L322.346 173.39L322.493 169.21ZM312.245 163.774L270.995 165.426V166.303L312.245 167.955V163.774ZM303.486 158.996L270.917 161.782L270.947 162.659L303.633 163.176L303.486 158.996ZM289.583 155.173L270.71 158.143L270.771 159.018L289.877 159.344L289.584 155.173H289.583ZM298.098 149.951L270.375 154.514L270.467 155.386L298.537 154.109L298.098 149.949V149.951ZM308.138 143.881L269.914 150.9L270.036 151.768L308.723 148.022L308.138 143.881ZM293.265 141.42L269.324 147.302L269.478 148.166L293.994 145.538L293.265 141.42ZM332.136 128.59L268.612 143.726L268.796 144.583L333.01 132.681L332.136 128.59ZM311.071 127.725L267.774 140.178L267.986 141.029L312.085 131.782L311.069 127.724L311.071 127.725ZM315.28 121.104L266.813 136.664L267.055 137.508L316.438 125.126L315.28 121.106V121.104ZM309.233 117.367L265.727 133.181L265.999 134.015L310.531 121.344L309.233 117.367ZM300.836 114.819L264.522 129.74L264.823 130.564L302.273 118.748L300.836 114.818V114.819ZM313.214 104.436L263.195 126.342L263.525 127.156L314.787 108.313L313.213 104.436H313.214ZM320.727 95.0362L261.752 122.994L262.109 123.795L322.435 98.8568L320.727 95.0362ZM315.945 90.7781L260.189 119.698L260.575 120.487L317.786 94.5387L315.945 90.7798V90.7781ZM305.679 89.6117L258.515 116.457L258.928 117.23L307.65 93.304L305.679 89.6117ZM307.002 82.4632L256.727 113.277L257.168 114.036L309.102 86.084L307.002 82.4615V82.4632ZM292.518 84.7595L254.829 110.16L255.295 110.904L294.742 88.3054L292.517 84.7595H292.518ZM284.047 84.1455L252.822 107.112L253.315 107.839L286.396 87.6115L284.048 84.1438L284.047 84.1455ZM272.999 85.9675L250.712 104.137L251.23 104.845L275.468 89.3504L273 85.9675H272.999ZM277.988 76.1916L248.496 101.235L249.038 101.925L280.573 79.4863L277.988 76.1916ZM271.512 75.0867L246.18 98.4108L246.747 99.0831L274.212 78.2899L271.513 75.0867H271.512ZM261.254 77.7674L243.768 95.6702L244.357 96.3225L264.064 80.8757L261.254 77.7674ZM261.523 71.2346L241.261 93.0162L241.873 93.6468L264.439 74.2431L261.521 71.2346H261.523ZM259.64 66.4374L238.661 90.4486L239.294 91.0577L262.659 69.341L259.638 66.4357L259.64 66.4374ZM278.434 38.5457L235.976 87.9743L236.631 88.5617L281.555 41.3445L278.434 38.5457ZM270.994 38.1746L233.202 85.5965L233.877 86.1606L274.21 40.8636L270.994 38.1746ZM259.792 43.1L230.348 83.3135L231.042 83.8526L263.1 45.6742L259.79 43.1H259.792ZM259.252 34.6852L227.418 81.132L228.129 81.6478L262.649 37.1446L259.252 34.6869V34.6852ZM247.679 41.7455L224.412 79.0554L225.142 79.5462L251.161 44.0851L247.679 41.7472V41.7455ZM237.226 48.6344L221.332 77.0819L222.079 77.5461L240.787 50.8492L237.226 48.6327V48.6344ZM249.399 18.0787L218.187 75.2182L218.949 75.6575L253.034 20.1703L249.397 18.0787H249.399ZM232.422 37.276L214.979 73.4644L215.756 73.8754L236.13 39.2395L232.422 37.276ZM237.119 16.1751L211.711 71.8237L212.503 72.2081L240.894 18.0088L237.119 16.1751ZM233.43 10.2213L208.387 70.2961L209.191 70.6522L237.266 11.9219L233.43 10.2213ZM226.692 11.04L205.014 68.8867L205.831 69.2145L230.587 12.6058L226.694 11.0383L226.692 11.04ZM218.401 16.7691L201.592 67.5955L202.419 67.895L222.348 18.2001L218.401 16.7691ZM215.654 7.35095L198.125 66.424L198.962 66.6953L219.648 8.64387L215.654 7.35095ZM204.992 23.3552L194.621 65.3724L195.468 65.6137L209.031 24.5083L204.994 23.3552H204.992ZM202.004 13.9803L191.08 64.4439L191.934 64.6552L206.078 14.992L202.003 13.9803H202.004ZM188.874 49.3083L187.513 63.6402L188.373 63.8232L192.981 50.1786L188.874 49.3083ZM185.274 45.7773L183.917 62.9596L184.784 63.1111L189.409 46.5028L185.274 45.7773ZM185.487 13.7606L180.299 62.4039L181.171 62.5253L189.646 14.343L185.487 13.7606ZM178.424 23.6247L176.665 61.9812L177.542 62.0594L182.608 23.9958L178.426 23.6247H178.424ZM172.69 42.6474L173.017 61.6717L173.896 61.7333L176.879 42.9402L172.69 42.649V42.6474ZM168.903 27.1906L169.361 61.497L170.242 61.5269L173.101 27.3354L168.903 27.189V27.1906Z" fill="#97DE00"/>
<path d="M145.121 1.88529L151.987 62.4027L151.115 62.5242L140.962 2.46769L145.121 1.88529ZM121.262 2.41111L137.666 65.3729L136.82 65.6142L117.225 3.56425L121.262 2.41111ZM215.654 7.35148L219.648 8.6444L198.962 66.6958L198.125 66.4246L215.654 7.35148ZM134.523 7.66431L144.774 63.6391L143.911 63.8221L130.414 8.53457L134.521 7.66431M162.734 8.74923L162.923 61.4975L162.043 61.5275L158.537 8.89399L162.734 8.74756M233.429 10.2219L237.266 11.9224L209.191 70.6528L208.387 70.2967L233.429 10.2219ZM98.855 10.2219L123.897 70.2967L123.093 70.6528L95.0185 11.9224L98.855 10.2219ZM226.692 11.0405L230.586 12.6063L205.829 69.2151L205.012 68.8873L226.691 11.0405M185.487 13.7611L189.646 14.3435L181.171 62.5259L180.299 62.4044L185.487 13.7611ZM202.004 13.9808L206.08 14.9925L191.935 64.6558L191.082 64.4444L202.006 13.9808M237.119 16.1756L240.893 18.0093L212.503 72.2086L211.711 71.8242L237.119 16.1756ZM218.401 16.7696L222.348 18.2007L202.419 67.8955L201.592 67.596L218.401 16.7696ZM249.398 18.0792L253.036 20.1708L218.951 75.658L218.189 75.2187L249.4 18.0792M158.006 20.026L159.267 61.6722L158.388 61.7338L153.817 20.3189L158.006 20.0277M84.054 20.0926L114.097 75.2187L113.335 75.658L80.418 22.1842L84.054 20.0926ZM77.7579 21.0627L110.952 77.0824L110.206 77.5466L74.1972 23.2775L77.7579 21.061M97.7121 21.3772L120.574 71.8242L119.782 72.2086L93.9375 23.2109L97.7121 21.3772ZM109.878 21.6052L127.271 68.8873L126.454 69.2151L105.983 23.171L109.876 21.6035M132.399 22.4471L141.203 64.4428L140.349 64.6541L128.325 23.4572L132.4 22.4455M204.992 23.3557L209.029 24.5088L195.466 65.6142L194.621 65.3729L204.992 23.3557ZM178.424 23.6252L182.607 23.9963L177.54 62.0599L176.663 61.9817L178.423 23.6252M168.903 27.1912L173.101 27.3376L170.242 61.5291L169.361 61.4992L168.903 27.1928M143.845 27.895L148.368 62.9585L147.501 63.1099L139.709 28.6205L143.845 27.895ZM154.208 32.7855L155.62 61.9751L154.744 62.0666L150.032 33.2231L154.208 32.7855ZM65.1508 33.7439L101.934 83.314L101.241 83.8531L61.8407 36.3181L65.1508 33.7439ZM98.2134 34.1849L117.307 73.4649L116.53 73.8759L94.5072 36.1484L98.215 34.1849M259.252 34.6857L262.649 37.1434L228.129 81.6467L227.417 81.1309L259.252 34.6841M80.7305 36.0253L107.875 79.0559L107.144 79.5467L77.25 38.3648L80.7322 36.0269M232.422 37.2766L236.13 39.2401L215.756 73.8759L214.979 73.4649L232.422 37.2766ZM270.993 38.1751L274.21 40.8641L233.877 86.1611L233.202 85.597L270.993 38.1751ZM126.716 38.2616L134.16 66.4246L133.323 66.6958L122.722 39.5546L126.716 38.2616ZM278.434 38.5462L281.555 41.345L236.631 88.5622L235.976 87.9748L278.434 38.5462ZM168.242 40.7743L166.583 61.4493H165.702L164.043 40.7743H168.242ZM247.679 41.746L251.161 44.0839L225.142 79.5451L224.411 79.0542L247.679 41.7444M172.69 42.6479L176.879 42.9391L173.896 61.7321L173.017 61.6706L172.69 42.6462M259.792 43.1005L263.102 45.6747L231.043 83.8531L230.35 83.314L259.793 43.1005M51.0449 44.1655L93.6217 90.4508L92.9884 91.0599L48.0238 47.0708L51.0449 44.1655ZM80.6586 45.1406L104.867 81.1342L104.155 81.65L77.2617 47.5999L80.6586 45.1422M185.273 45.7779L189.409 46.5034L184.784 63.1116L183.917 62.9602L185.273 45.7779ZM60.6928 46.1123L96.3102 87.9748L95.6552 88.5622L57.5715 48.9111L60.6928 46.1123ZM237.226 48.6349L240.787 50.8513L222.079 77.5483L221.332 77.0841L237.226 48.6366M188.874 49.3088L192.981 50.1791L188.373 63.8238L187.512 63.6407L188.874 49.3088ZM126.626 51.6301L130.694 67.5944L129.867 67.8939L122.679 53.0595L126.626 51.6284M43.4455 53.0345L88.517 95.6724L87.9271 96.3247L40.635 56.1428L43.4455 53.0345ZM78.2107 58.2561L99.0822 85.597L98.4072 86.1611L74.9942 60.9451L78.2107 58.2577M44.8959 61.822L86.1025 98.413L85.5361 99.0852L42.1957 65.0268L44.8942 61.8237M61.55 62.3761L91.0217 93.0167L90.4101 93.6473L58.6325 65.3846L61.55 62.3761ZM259.64 66.4379L262.661 69.3432L239.296 91.0599L238.663 90.4508L259.641 66.4396M261.523 71.2352L264.44 74.2436L241.874 93.6473L241.263 93.0167L261.524 71.2352M271.511 75.0873L274.21 78.2904L246.745 99.0836L246.179 98.4113L271.51 75.0873M277.988 76.1922L280.573 79.4868L249.038 101.926L248.496 101.235L277.988 76.1922ZM261.254 77.768L264.064 80.8763L244.357 96.323L243.767 95.6708L261.254 77.768ZM41.7027 79.7564L79.4606 107.112L78.9677 107.839L39.3534 83.2242L41.7011 79.7564M307.002 82.4637L309.102 86.0862L257.168 114.038L256.727 113.279L307.002 82.4654M284.047 84.146L286.394 87.6137L253.313 107.841L252.821 107.114L284.045 84.1477M292.518 84.76L294.744 88.306L255.297 110.905L254.831 110.161L292.52 84.76M31.0289 85.7684L75.5573 113.277L75.1162 114.036L28.9285 89.3892L31.0289 85.7667M272.999 85.9681L275.467 89.3509L251.228 104.846L250.71 104.137L272.997 85.9681M69.0207 87.6487L83.7883 101.235L83.2469 101.926L66.4357 90.9434L69.0207 87.647M46.1608 88.7386L77.4555 110.161L76.9893 110.905L43.9351 92.2845L46.1608 88.7386ZM305.678 89.6122L307.65 93.3046L258.928 117.231L258.515 116.457L305.678 89.6122ZM315.945 90.7786L317.786 94.5376L260.575 120.486L260.189 119.697L315.945 90.777M20.0977 92.604L72.0952 119.699L71.7092 120.487L18.2564 96.3646L20.0977 92.6057M70.0366 93.7472L81.5726 104.137L81.0546 104.846L67.567 97.1301L70.0349 93.7472M36.3575 94.7755L73.7694 116.457L73.3567 117.231L34.3858 98.4679L36.3575 94.7755ZM320.727 95.0368L322.435 98.8573L262.109 123.795L261.752 122.995L320.727 95.0368ZM12.4282 101.764L69.0892 126.345L68.7583 127.158L10.8542 105.643L12.4282 101.766M313.214 104.437L314.787 108.314L263.524 127.157L263.195 126.343L313.214 104.437ZM36.2255 105.974L70.5328 122.995L70.1753 123.795L34.5178 109.795L36.2255 105.974ZM17.6047 109.803L67.7625 129.742L67.4617 130.566L16.1677 113.733L17.6047 109.803ZM300.836 114.82L302.273 118.75L264.823 130.566L264.522 129.742L300.836 114.822M309.233 117.367L310.531 121.344L265.999 134.016L265.727 133.182L309.233 117.367ZM29.0422 119.306L66.5577 133.182L66.2854 134.016L27.7439 123.283L29.0422 119.306ZM315.28 121.105L316.438 125.125L267.055 137.507L266.813 136.663L315.28 121.103M22.183 122.582L65.4733 136.663L65.231 137.507L21.0267 126.603L22.1847 122.582M8.65356 124.607L64.5108 140.179L64.2986 141.029L7.63764 128.664L8.65356 124.606M311.071 127.726L312.086 131.784L267.987 141.031L267.775 140.181L311.072 127.727M332.136 128.591L333.01 132.681L268.796 144.584L268.612 143.727L332.136 128.591ZM14.6655 131.664L63.672 143.727L63.4882 144.584L13.7916 135.754L14.6639 131.664M3.08938 135.111L62.9602 147.301L62.8082 148.164L2.35919 139.231L3.08771 135.112M293.265 141.42L293.994 145.539L269.478 148.166L269.324 147.303L293.265 141.42ZM11.5409 142.118L62.3721 150.9L62.2501 151.769L10.9578 146.259L11.5426 142.118M308.138 143.881L308.723 148.023L270.036 151.769L269.914 150.9L308.138 143.881ZM22.0577 148.682L61.9092 154.514L61.8173 155.386L21.6182 152.84L22.0577 148.682ZM298.098 149.952L298.537 154.112L270.467 155.388L270.375 154.516L298.098 149.953M2.08015 152.344L61.5767 158.143L61.5149 159.019L1.78774 156.516L2.08015 152.344ZM289.582 155.173L289.875 159.345L270.77 159.019L270.708 158.143L289.581 155.173M10.1407 158.348L61.3695 161.783L61.3394 162.659L9.99531 162.528L10.1424 158.348M303.486 158.997L303.633 163.177L270.947 162.659L270.917 161.783L303.486 158.997ZM312.245 163.774V167.956L270.995 166.304V165.427L312.245 163.774ZM25.7287 163.774L61.2893 165.427V166.304L25.7287 167.956V163.774ZM270.947 169.072L322.495 169.212L322.348 173.392L270.917 169.949L270.947 169.072ZM61.3378 169.072L61.3678 169.949L8.52323 173.44L8.37618 169.26L61.3378 169.072ZM270.77 172.713L308.935 173.713L308.643 177.885L270.708 173.587L270.77 172.712M61.5149 172.713L61.5767 173.588L24.4939 177.827L24.2015 173.655L61.5165 172.713M270.467 176.344L316.336 179.484L315.896 183.642L270.375 177.216L270.467 176.344ZM61.8173 176.344L61.9092 177.216L14.4416 183.845L14.0022 179.685L61.8173 176.342M270.036 179.963L300.931 182.619L300.347 186.761L269.914 180.832L270.036 179.963ZM62.2484 179.963L62.3704 180.832L34.2588 186.434L33.674 182.293L62.2467 179.963M269.478 183.566L292.119 185.864L291.39 189.982L269.326 184.429L269.48 183.566M62.8065 183.566L62.9586 184.429L22.3083 193.245L21.5798 189.127L62.8065 183.566ZM268.795 187.147L307.538 193.658L306.664 197.748L268.611 188.004L268.795 187.147ZM63.4899 187.147L63.6737 188.004L33.1643 196.152L32.2904 192.062L63.4899 187.147ZM267.987 190.701L310.255 199.492L309.239 203.55L267.775 191.551L267.987 190.701ZM64.297 190.701L64.5092 191.551L26.1531 202.778L25.1372 198.72L64.2953 190.701M267.055 194.225L303.531 202.923L302.373 206.943L266.811 195.069L267.053 194.225M65.2293 194.225L65.4716 195.069L37.4235 204.798L36.2656 200.778L65.2293 194.227M265.999 197.716L310.519 210.384L309.221 214.361L265.725 198.55L265.997 197.716M66.2854 197.716L66.5577 198.55L33.3749 211.025L32.0766 207.048L66.2854 197.716ZM264.823 201.167L303.62 213.471L302.183 217.401L264.52 201.991L264.821 201.167M67.4617 201.167L67.7625 201.991L46.1975 211.566L44.7605 207.635L67.46 201.166M263.524 204.575L309.674 221.361L308.101 225.239L263.195 205.389L263.524 204.575ZM68.76 204.575L69.0908 205.389L43.2534 217.568L41.6793 213.69L68.76 204.577M262.109 207.936L280.989 214.499L279.281 218.32L261.75 208.738L262.108 207.938M70.1753 207.936L70.5328 208.737L21.4612 232.304L19.7535 228.483L70.1753 207.936ZM260.577 211.246L290.65 224.014L288.809 227.773L260.191 212.033L260.577 211.244M71.7075 211.246L72.0935 212.035L31.6505 233.517L29.8091 229.758L71.7075 211.246ZM258.928 214.499L284.099 225.956L282.127 229.648L258.515 215.275L258.928 214.501M73.3567 214.499L73.7694 215.273L29.6036 240.531L27.6319 236.838L73.3567 214.499ZM257.168 217.694L290.781 235.111L288.68 238.732L256.729 218.453L257.17 217.694M75.1162 217.694L75.5573 218.453L26.636 248.489L24.5357 244.867L75.1162 217.694ZM255.295 220.827L283.611 236.499L281.385 240.045L254.827 221.569L255.293 220.826M76.9893 220.827L77.4555 221.571L37.4285 248.428L35.2029 244.882L76.9876 220.829M253.315 223.892L293.8 249.093L291.452 252.561L252.824 224.62L253.317 223.892M78.9693 223.892L79.4623 224.62L53.324 244.17L50.9764 240.702L78.971 223.891M251.228 226.886L285.485 249.629L283.017 253.012L250.712 227.595L251.23 226.886M81.0563 226.886L81.5743 227.595L51.5244 251.38L49.0565 247.997L81.058 226.886M249.038 229.806L277.849 250.125L275.264 253.42L248.496 230.497L249.038 229.806ZM83.2469 229.806L83.7883 230.497L66.424 246.105L63.8391 242.809L83.2469 229.806ZM246.747 232.648L270.13 250.03L267.431 253.233L246.182 233.319L246.748 232.647M85.5377 232.648L86.1042 233.321L61.2225 256.268L58.5239 253.065L85.5394 232.648M244.357 235.409L265.707 252.328L262.896 255.436L243.767 236.061L244.357 235.409ZM87.9271 235.409L88.517 236.061L73.5305 251.723L70.72 248.614L87.9271 235.409ZM241.873 238.084L281.079 273.491L278.162 276.499L241.261 238.715L241.873 238.084ZM90.4118 238.084L91.0234 238.715L72.3258 258.994L69.4083 255.986L90.4118 238.084ZM239.296 240.674L270.292 270.258L267.271 273.163L238.663 241.283L239.296 240.674ZM92.9884 240.674L93.6217 241.283L81.6161 256.042L78.595 253.137L92.9884 240.674ZM236.629 243.17L274.898 283.025L271.777 285.824L235.974 243.757L236.629 243.17ZM95.6552 243.17L96.3102 243.757L61.8156 284.377L58.6944 281.578L95.6552 243.17ZM233.877 245.572L257.847 271.449L254.63 274.138L233.202 246.136L233.877 245.572ZM98.4072 245.572L99.0822 246.136L69.9062 283.333L66.6897 280.644L98.4089 245.572M231.043 247.877L260.833 283.162L257.522 285.736L230.35 248.416L231.043 247.877ZM101.241 247.877L101.934 248.416L82.1792 276.281L78.8691 273.707L101.239 247.877M228.129 250.083L245.851 271.564L242.454 274.022L227.417 250.599L228.129 250.083ZM104.155 250.083L104.867 250.599L81.3237 285.679L77.9267 283.222L104.155 250.083ZM225.14 252.187L237.704 267.78L234.221 270.118L224.41 252.676L225.14 252.185M107.144 252.187L107.875 252.678L81.1449 295.096L77.6627 292.758L107.143 252.188M222.079 254.185L241.934 282.711L238.374 284.927L221.334 254.651L222.081 254.187M110.206 254.185L110.952 254.649L89.1536 292.508L85.5929 290.292L110.206 254.185ZM218.949 256.074L242.34 293.116L238.703 295.207L218.186 256.513L218.948 256.074M113.335 256.074L114.097 256.513L95.0971 292.592L91.4595 290.5L113.335 256.074ZM215.756 257.854L235.669 291.628L231.961 293.592L214.979 258.265L215.756 257.853M116.528 257.854L117.305 258.267L97.6603 298.582L93.9525 296.618L116.528 257.856M212.503 259.523L235.052 301.795L231.277 303.629L211.711 259.908L212.503 259.523ZM119.782 259.523L120.574 259.908L99.2794 307.156L95.5048 305.323L119.782 259.523ZM209.191 261.077L233.292 310.92L229.456 312.621L208.387 261.434L209.191 261.077ZM123.092 261.077L123.895 261.434L108.767 299.334L104.93 297.633L123.09 261.077M205.829 262.515L219.598 292.041L215.704 293.608L205.014 262.845L205.831 262.517M126.455 262.515L127.272 262.843L110.276 309.148L106.382 307.581L126.457 262.513M202.417 263.836L226.31 324.374L222.363 325.805L201.59 264.136L202.417 263.836ZM129.867 263.836L130.694 264.136L120.306 297.389L116.36 295.958L129.866 263.836M198.962 265.038L205.512 279.767L201.518 281.06L198.125 265.309L198.962 265.038ZM133.323 265.038L134.16 265.309L123.571 303.11L119.578 301.817L133.323 265.038ZM195.466 266.118L203.466 287.904L199.43 289.057L194.621 266.359L195.466 266.118ZM136.818 266.118L137.664 266.359L123.314 322.191L119.277 321.037L136.817 266.118M191.935 267.076L202.923 304.13L198.848 305.141L191.082 267.287L191.935 267.076ZM140.349 267.076L141.203 267.287L130.08 318.545L126.004 317.533L140.347 267.074M188.373 267.91L195.294 292.39L191.187 293.259L187.512 268.091L188.373 267.908M143.911 267.91L144.774 268.093L134.157 325.781L130.049 324.911L143.913 267.91M184.784 268.62L196.967 327.906L192.831 328.632L183.917 268.772L184.784 268.619M147.501 268.62L148.368 268.773L143.98 303.075L139.844 302.349L147.501 268.62ZM181.171 269.206L188.894 312.062L184.735 312.644L180.297 269.329L181.17 269.208M151.113 269.206L151.985 269.327L146.62 319.217L142.461 318.635L151.113 269.206ZM177.54 269.665L185.725 331.399L181.547 331.837L176.663 269.758L177.539 269.667M154.744 269.665L155.62 269.757L152.919 311.147L148.742 310.709L154.742 269.664M173.896 269.998L179.758 329.795L175.569 330.086L173.017 270.06L173.896 269.998ZM158.388 269.998L159.267 270.06L156.368 335.042L152.179 334.75L158.39 270M170.242 270.204L174.179 335.131L169.981 335.278L169.361 270.236L170.242 270.206M162.043 270.204L162.923 270.234L163.231 308.814L159.033 308.667L162.043 270.204ZM166.583 270.283L168.242 318.039H164.043L165.702 270.283H166.583ZM146.588 0L144.887 0.23795L140.728 0.820344L139.029 1.05829L139.315 2.74391L143.297 26.3009L139.747 26.9233L136.165 7.36479L135.856 5.67918L134.173 6.03527L130.066 6.90553L128.384 7.26163L128.79 8.92561L131.714 20.9013L128.041 21.8132L122.878 1.99179L122.447 0.339453L120.799 0.81036L116.762 1.9635L115.115 2.43441L115.629 4.06345L125.952 36.7574L122.203 37.9704L120.52 38.5146L121.162 40.1553L125.159 50.3904L122.587 51.3223L111.445 21.0328L110.852 19.4187L109.251 20.0627L105.408 21.6085L100.396 9.58455L99.7389 8.00875L98.1732 8.70264L94.3368 10.4032L92.7712 11.0971L93.508 12.638L96.9719 19.8846L93.2039 21.715L91.6566 22.4671L92.457 23.9847L97.1423 32.867L93.8623 34.6042L85.521 19.3005L84.7023 17.7996L83.2168 18.6533L79.5809 20.7449L79.5258 20.7765L79.1949 20.2191L78.3244 18.7498L76.8707 19.655L73.3099 21.8714L71.8562 22.7766L72.802 24.201L79.7547 34.6791L76.3159 36.9887L74.8856 37.9505L75.8965 39.3432L79.3186 44.059L76.4312 46.1489L66.4959 32.7605L65.4766 31.3861L64.1249 32.4377L60.8148 35.0119L59.463 36.0635L60.5558 37.3814L76.9408 57.1495L74.2122 59.4292L61.9694 45.0391L60.8565 43.7312L59.5766 44.8793L56.5038 47.6349L52.2797 43.0439L51.1201 41.7843L49.8853 42.9707L46.8642 45.876L45.6294 47.0625L46.8525 48.2589L60.2283 61.3444L57.5615 64.095L44.5951 51.8281L43.3503 50.6517L42.2023 51.9213L39.3919 55.0296L38.2439 56.2992L39.5489 57.4091L43.5608 60.8186L40.9157 63.9585L39.8096 65.2714L41.1614 66.3331L67.4283 86.9748L65.1174 89.92L63.9995 91.3444L65.5167 92.3361L67.8744 93.877L66.5444 95.7007L42.6836 78.4136L41.2833 77.3986L40.3159 78.8279L37.9682 82.2957L37.0008 83.725L38.4695 84.6385L44.4364 88.3459L42.7404 91.0482L31.9095 84.3557L30.4441 83.4505L29.5819 84.9381L27.4815 88.5605L26.6193 90.0481L28.1399 90.8585L34.6899 94.3545L33.0273 97.4679L20.8697 91.1331L19.3475 90.3393L18.5939 91.8785L16.7525 95.6375L15.9989 97.1767L17.5646 97.8839L34.5813 105.563L33.0825 108.914L13.0932 100.243L11.5192 99.5611L10.8759 101.145L9.30188 105.022L8.65857 106.606L10.266 107.204L15.9956 109.332L14.5937 113.166L14.0039 114.778L15.6397 115.316L27.3295 119.151L26.3386 122.188L22.696 121.003L21.0485 120.467L20.5706 122.126L19.4828 125.904L9.09635 123.008L7.44047 122.547L7.02441 124.208L6.00849 128.267L5.59243 129.927L7.2717 130.293L12.9762 131.538L12.1809 135.269L3.41521 133.483L1.73259 133.14L1.43517 134.824L0.706648 138.943L0.409224 140.627L2.10688 140.878L9.85996 142.024L9.29519 146.03L9.05458 147.732L10.7706 147.917L20.345 148.945L19.9774 152.423L2.23554 150.694L0.526188 150.527L0.405882 152.235L0.113471 156.406L-0.00683594 158.113L1.7092 158.185L8.45639 158.468L8.31603 162.476L8.25588 164.194L9.98194 164.199L24.0511 164.235V167.547L8.36449 167.601L6.6401 167.608L6.70025 169.324L6.84729 173.504L6.90744 175.219L8.62849 175.106L22.5556 174.186L22.7829 177.411L13.8802 178.033L12.1541 178.154L12.3346 179.868L12.7741 184.028L12.9545 185.742L14.6672 185.503L32.0899 183.07L32.501 185.982L21.3492 187.486L19.6265 187.719L19.9289 189.425L20.6575 193.543L20.9599 195.249L22.6592 194.881L30.7983 193.115L31.3614 195.756L24.7963 197.101L23.0903 197.45L23.5114 199.132L24.5273 203.191L24.9484 204.873L26.6193 204.384L34.862 201.971L35.5554 204.379L31.6287 205.45L29.9394 205.911L30.4808 207.57L31.7791 211.547L32.3205 213.206L33.958 212.591L43.4773 209.011L44.2325 211.08L41.1363 212.121L39.4587 212.685L40.122 214.321L41.539 217.814L19.1119 226.952L17.5178 227.601L18.2179 229.169L19.9256 232.989L20.6257 234.557L22.178 233.811L28.449 230.8L29.9478 233.86L26.8883 235.356L25.3377 236.113L26.1481 237.63L28.0095 241.116L23.7336 243.413L22.2198 244.226L23.0803 245.709L25.1807 249.331L26.0412 250.814L27.5049 249.915L33.9112 245.982L36.0049 249.316L36.9206 250.777L38.3542 249.816L49.8802 242.083L51.4609 244.418L48.1241 246.619L46.6687 247.579L47.6947 248.985L50.1626 252.368L51.1886 253.774L52.5537 252.693L62.9803 244.439L64.5409 246.429L57.503 251.749L56.1044 252.806L57.2323 254.145L59.9325 257.348L61.0604 258.688L62.3487 257.5L70.0583 250.39L71.517 252.002L68.3139 254.731L66.9654 255.881L68.1986 257.152L71.116 260.161L72.3491 261.432L73.5489 260.131L78.199 255.087L80.1089 256.924L57.4796 280.44L56.2866 281.679L57.5682 282.827L60.6894 285.626L61.971 286.774L63.0839 285.463L65.886 282.163L68.8252 284.619L70.1502 285.728L71.2163 284.37L78.2742 275.373L80.5901 277.175L76.61 282.205L75.5339 283.564L76.9392 284.581L79.9585 286.766L76.3042 291.795L75.2916 293.187L76.7236 294.149L80.2058 296.487L81.6378 297.449L82.5551 295.991L85.0949 291.959L88.2613 293.929L89.7334 294.845L90.5973 293.345L91.2055 292.289L93.7052 293.726L92.5021 295.793L91.6316 297.287L93.1621 298.098L96.5073 299.868L94.0227 304.556L93.2173 306.075L94.7679 306.829L98.5425 308.662L100.093 309.416L100.8 307.849L104.636 299.336L107.636 300.665L104.85 306.918L104.15 308.491L105.753 309.135L109.646 310.702L111.248 311.346L111.841 309.731L116.256 297.702L118.965 298.683L118.007 301.244L117.399 302.872L119.056 303.408L122.769 304.609L117.681 320.542L117.16 322.174L118.812 322.646L122.849 323.8L124.502 324.272L124.928 322.613L125.802 319.21L129.49 320.126L128.419 324.528L128.014 326.192L129.695 326.549L133.802 327.419L135.483 327.775L135.792 326.091L139.848 304.051L143.21 304.642L140.809 318.36L140.513 320.054L142.222 320.294L146.381 320.876L148.09 321.116L148.274 319.405L149.024 312.425L152.599 312.799L150.508 334.602L150.344 336.301L152.054 336.421L156.243 336.712L157.952 336.832L158.029 335.126L159.135 310.348L162.626 310.469L162.365 317.994L162.305 319.716H168.155L168.304 335.306L168.32 337.013L170.033 336.953L174.23 336.807L175.943 336.747L175.839 335.043L175.641 331.762L175.679 331.758L179.836 331.469L179.876 331.978L180.01 333.682L181.716 333.504L185.893 333.066L187.599 332.888L187.375 331.194L185.133 314.282L188.918 313.753L191.172 328.891L191.424 330.584L193.115 330.288L197.251 329.562L198.942 329.266L198.597 327.59L191.867 294.831L194.888 294.192L197.206 305.489L197.555 307.191L199.247 306.772L203.323 305.76L205.015 305.339L204.521 303.674L200.604 290.467L203.923 289.52L205.647 289.027L205.03 287.348L203.172 282.288L205.66 281.483L220.774 326.349L221.319 327.968L222.929 327.384L226.876 325.953L228.487 325.369L227.86 323.78L216.535 295.081L219.868 293.74L227.905 313.268L228.559 314.854L230.131 314.157L233.967 312.456L235.54 311.759L234.793 310.215L232.275 305.008L235.779 303.306L237.333 302.551L236.521 301.03L233.211 294.826L235.854 293.427L237.217 295.999L238.028 297.527L239.53 296.663L243.168 294.572L244.67 293.708L243.746 292.246L239.806 286.006L242.81 284.135L244.297 283.21L243.298 281.776L235.834 271.051L237.729 269.778L241.037 274.932L241.993 276.419L243.428 275.381L246.357 273.263L256.162 286.728L257.178 288.124L258.543 287.062L261.854 284.488L263.219 283.426L262.104 282.107L256.147 275.052L258.632 272.975L270.497 286.916L271.61 288.224L272.89 287.076L276.011 284.277L277.291 283.129L276.102 281.889L268.664 274.143L271.164 271.739L276.959 277.672L278.16 278.904L279.358 277.669L282.276 274.661L283.474 273.426L282.197 272.273L264.435 256.232L266.149 254.337L266.281 254.461L267.57 255.668L268.706 254.318L270.811 251.821L274.17 254.698L275.498 255.834L276.576 254.46L278.7 251.754L281.978 254.333L283.343 255.407L284.366 254.005L286.513 251.062L290.466 253.921L291.867 254.932L292.834 253.505L295.182 250.037L296.149 248.609L294.682 247.696L283.089 240.479L284.571 238.116L287.776 240.151L289.248 241.085L290.121 239.579L292.221 235.958L293.093 234.452L291.544 233.65L283.978 229.73L285.091 227.646L287.995 229.244L289.534 230.091L290.304 228.517L292.146 224.758L292.916 223.184L291.299 222.496L281.166 218.195L282.296 215.669L307.418 226.774L308.997 227.473L309.644 225.877L311.218 222L311.864 220.405L310.24 219.814L303.917 217.514L304.978 214.609L308.641 215.94L310.269 216.531L310.803 214.89L312.102 210.913L312.636 209.273L310.97 208.798L304.135 206.853L304.94 204.056L308.765 205.163L310.432 205.645L310.852 203.968L311.868 199.909L312.287 198.232L310.588 197.879L308.437 197.432L309.166 194.019L309.528 192.322L307.809 192.032L293.155 189.569L293.583 187.155L300.017 188.408L301.747 188.746L301.992 187.007L302.495 183.448L315.654 185.305L317.37 185.546L317.55 183.83L317.99 179.672L318.17 177.956L316.443 177.838L310.345 177.421L310.566 174.284L322.229 175.064L323.95 175.179L324.01 173.462L324.157 169.282L324.217 167.565L322.491 167.56L313.909 167.537V162.055L312.172 162.125L305.271 162.402L305.15 158.952L305.089 157.203L303.338 157.353L291.476 158.368L291.317 156.118L298.605 155.787L300.377 155.707L300.191 153.952L299.834 150.569L308.877 149.694L310.613 149.526L310.37 147.807L309.786 143.665L309.543 141.946L307.829 142.261L295.504 144.524L294.96 141.444L333.311 134.335L334.995 134.022L334.639 132.353L333.765 128.263L333.409 126.594L331.742 126.992L313.676 131.297L312.793 127.771L316.839 126.756L318.513 126.336L318.037 124.684L316.879 120.664L316.402 119.011L314.76 119.539L311.978 120.433L310.817 116.872L310.282 115.231L308.654 115.822L303.635 117.645L302.525 114.61L315.36 109.893L316.976 109.299L316.331 107.708L314.763 103.846L323.069 100.411L324.652 99.7575L323.955 98.1983L322.247 94.3778L321.551 92.8187L320.003 93.5525L319.31 93.882L319.283 93.8271L317.442 90.0681L316.69 88.5323L315.168 89.321L309.086 92.4759L307.229 88.9998L309.891 87.5672L311.403 86.7535L310.544 85.2709L308.444 81.6484L307.585 80.1657L306.121 81.0626L296.034 87.246L293.93 83.8947L293.011 82.4304L291.576 83.3972L287.432 86.191L285.427 83.2325L284.451 81.7931L283.049 82.8248L276.349 87.7535L274.812 85.6453L281.54 80.858L282.959 79.8479L281.885 78.4785L279.3 75.1838L278.225 73.816L276.899 74.9425L274.947 76.5998L272.786 74.0356L271.66 72.6978L270.374 73.8826L264.696 79.1108L263.232 77.4917L265.526 75.5199L266.863 74.3701L265.637 73.1038L263.476 70.8757L263.797 70.5779L265.083 69.3815L263.817 68.1634L260.963 65.4195L282.762 42.5081L283.94 41.2685L282.667 40.127L279.545 37.3282L278.272 36.1867L277.158 37.4846L275.311 39.6344L275.279 39.6078L272.063 36.9188L270.748 35.8189L269.68 37.1584L264.001 44.2853L261.026 41.9707L263.967 38.1801L265.02 36.824L263.628 35.8173L260.231 33.3596L258.839 32.3528L257.868 33.7689L251.843 42.5597L248.61 40.3882L247.171 39.4214L246.255 40.8891L241.122 49.1208L238.299 47.3636L254.456 21.0594L255.35 19.6034L253.867 18.7498L250.229 16.6581L248.745 15.8045L247.926 17.3038L236.775 37.7192L233.396 35.9304L242.371 18.798L243.164 17.2821L241.622 16.5333L237.847 14.6996L237.804 14.678L238.77 12.6563L239.507 11.1154L237.941 10.4215L234.105 8.72094L232.539 8.02706L231.882 9.60285L231.257 11.1038L231.207 11.0838L227.314 9.51799L225.723 8.87735L225.123 10.4781L222.821 16.6215L219.066 15.2604L221.22 9.21847L221.793 7.60773L220.161 7.08025L216.167 5.78734L214.535 5.25985L214.048 6.89888L209.306 22.8781L205.854 21.8914L207.684 15.4667L208.155 13.8144L206.481 13.3984L202.405 12.3867L200.731 11.9707L200.367 13.6497L192.831 48.4652L190.722 48.0192L191.015 46.9693L191.506 45.2038L189.695 44.886L186.081 44.252L191.287 14.6514L191.585 12.9558L189.874 12.7162L185.715 12.1338L184.004 11.8942L183.821 13.6064L182.886 22.3706L182.749 22.359L178.566 21.9879L176.829 21.8348L176.748 23.5703L175.938 41.2285L173.625 41.0671L174.76 27.4957L174.905 25.7551L173.153 25.6936L168.955 25.5471L167.202 25.4856L167.226 27.2311L167.385 39.1286H164.506L164.397 8.76088L164.39 7.04364L162.668 7.10355L158.47 7.24998L156.747 7.30988L156.861 9.02378L157.486 18.4136L153.691 18.6782L151.957 18.7997L152.147 20.5203L153.329 31.223L150.156 31.5558L146.77 1.7189L146.578 0.0199678L146.588 0ZM164.328 63.1132H167.954L169.303 63.1598L170.183 63.1898L171.565 63.238L172.902 63.3312L173.781 63.3928L174.925 63.4727V63.4976L176.518 63.6391L177.395 63.7173L178.471 63.8121V63.8271L180.069 64.0517L180.941 64.1732L182.279 64.3612L183.628 64.5975L184.495 64.7489L185.83 64.9836L187.167 65.2664L188.027 65.4495L189.352 65.7307L190.679 66.0602L191.533 66.2715L192.856 66.5993L194.161 66.972L195.008 67.2133L196.325 67.5894L197.612 68.0054L198.449 68.2766L199.742 68.6959L201.022 69.1602L201.849 69.4597L203.124 69.9223L204.389 70.4314L205.206 70.7592L206.456 71.2618L207.711 71.8175L208.514 72.1736L209.756 72.7228L210.981 73.3185L211.773 73.7028L212.994 74.2969L214.197 74.9342L214.974 75.3452L216.174 75.9808L217.354 76.6597L218.115 77.099L219.308 77.7846L220.448 78.4951L221.195 78.9594L222.353 79.6799L223.477 80.4353L224.208 80.9262L225.329 81.68L226.437 82.4804L227.148 82.9962L228.253 83.7949L229.322 84.6269L230.016 85.166L231.089 86.0014L232.131 86.8733L232.806 87.4374L233.846 88.306L234.86 89.2162L235.515 89.8036L236.531 90.7154L237.505 91.6522L238.138 92.2613L239.121 93.2064L240.061 94.1765L240.673 94.8072L241.629 95.7922L242.529 96.7889L243.119 97.4412L244.036 98.4546L244.905 99.4863L245.472 100.159L246.346 101.195L247.184 102.265L247.726 102.956L248.558 104.016L249.363 105.121L249.881 105.829L250.68 106.924L251.442 108.049L251.935 108.776L252.69 109.891L253.417 111.049L253.883 111.793L254.6 112.936L255.283 114.116L255.725 114.875L256.4 116.04L257.043 117.246L257.457 118.02L258.094 119.211L258.692 120.434L259.078 121.223L259.678 122.448L260.228 123.679L260.585 124.479L261.145 125.732L261.648 126.974L261.977 127.787L262.488 129.05L262.951 130.318L263.252 131.142L263.717 132.415L264.138 133.704L264.41 134.538L264.828 135.818L265.205 137.129L265.448 137.973L265.822 139.27L266.153 140.588L266.365 141.439L266.694 142.755L266.977 144.079L267.16 144.936L267.441 146.254L267.678 147.597L267.832 148.461L268.068 149.787L268.258 151.136L268.38 152.005L268.569 153.339L268.713 154.694L268.805 155.566L268.947 156.909L269.042 158.265L269.104 159.14L269.199 160.5L269.246 161.847L269.276 162.724L269.323 164.082V167.661L269.276 169.019L269.246 169.896L269.199 171.246L269.104 172.603L269.042 173.479L268.947 174.836L268.805 176.178L268.713 177.05L268.569 178.406L268.38 179.74L268.258 180.609L268.068 181.958L267.832 183.285L267.678 184.148L267.441 185.491L267.16 186.809L266.977 187.666L266.693 188.992L266.363 190.307L266.151 191.157L265.82 192.478L265.448 193.774L265.205 194.618L264.826 195.932L264.408 197.21L264.136 198.044L263.715 199.335L263.25 200.607L262.95 201.43L262.485 202.702L261.974 203.961L261.645 204.775L261.14 206.021L260.582 207.269L260.224 208.07L259.676 209.296L259.075 210.526L258.689 211.314L258.092 212.532L257.454 213.729L257.04 214.503L256.395 215.709L255.72 216.872L255.278 217.631L254.59 218.819L253.878 219.954L253.412 220.698L252.684 221.859L251.93 222.971L251.437 223.698L250.678 224.818L249.876 225.917L249.358 226.626L248.563 227.718L247.721 228.791L247.179 229.482L246.342 230.548L245.467 231.588L244.9 232.261L244.031 233.292L243.116 234.306L242.526 234.958L241.62 235.96L240.671 236.94L240.06 237.57L239.116 238.545L238.136 239.487L237.503 240.096L236.521 241.041L235.513 241.945L234.858 242.532L233.842 243.443L232.805 244.309L232.129 244.874L231.09 245.742L230.014 246.579L229.321 247.118L228.25 247.952L227.148 248.749L226.437 249.265L225.335 250.062L224.208 250.819L223.477 251.31L222.358 252.062L221.197 252.786L220.45 253.25L219.298 253.967L218.117 254.646L217.355 255.085L216.186 255.758L214.976 256.398L214.199 256.811L213.009 257.442L211.774 258.041L210.982 258.425L209.756 259.021L208.518 259.57L207.714 259.926L206.459 260.482L205.209 260.984L204.392 261.312L203.127 261.821L201.852 262.284L201.025 262.583L199.749 263.046L198.452 263.465L197.615 263.736L196.332 264.152L195.012 264.53L194.164 264.771L192.859 265.144L191.536 265.472L190.682 265.683L189.361 266.011L188.03 266.292L187.17 266.475L185.847 266.755L184.5 266.991L183.633 267.144L182.304 267.377L180.946 267.567L180.074 267.688L178.732 267.876L177.373 268.018L176.498 268.109L175.138 268.253L173.788 268.346L172.909 268.407L171.545 268.502L170.19 268.549L169.309 268.579L167.946 268.625H164.35L162.987 268.579L162.106 268.549L160.753 268.502L159.389 268.407L158.51 268.346L157.16 268.253L155.8 268.109L154.924 268.018L153.566 267.876L152.223 267.688L151.35 267.567L149.992 267.377L148.664 267.144L147.796 266.991L146.451 266.755L145.126 266.474L144.264 266.291L142.934 266.009L141.612 265.682L140.758 265.47L139.43 265.141L138.13 264.77L137.283 264.529L135.968 264.152L134.681 263.736L133.844 263.465L132.551 263.046L131.273 262.582L130.445 262.282L129.167 261.82L127.906 261.312L127.089 260.984L125.834 260.48L124.584 259.926L123.78 259.57L122.544 259.022L121.314 258.425L120.522 258.041L119.287 257.44L118.097 256.809L117.32 256.397L116.111 255.756L114.941 255.084L114.179 254.644L113.004 253.969L111.846 253.248L111.1 252.784L109.937 252.06L108.819 251.308L108.089 250.817L106.951 250.052L105.859 249.263L105.148 248.747L104.047 247.95L102.974 247.117L102.28 246.577L101.208 245.742L100.167 244.872L99.4916 244.308L98.4456 243.434L97.4364 242.529L96.7814 241.942L95.7721 241.038L94.7913 240.095L94.158 239.486L93.1789 238.544L92.2331 237.569L91.6216 236.938L90.6808 235.968L89.7652 234.956L89.1753 234.304L88.263 233.294L87.3908 232.259L86.8243 231.587L85.9471 230.545L85.1116 229.482L84.5703 228.791L83.7298 227.72L82.9328 226.628L82.4148 225.919L81.6161 224.826L80.8541 223.699L80.3612 222.972L79.601 221.849L78.8791 220.699L78.4129 219.955L77.6928 218.807L77.011 217.632L76.5699 216.874L75.8898 215.701L75.2499 214.503L74.8371 213.729L74.1989 212.532L73.6023 211.314L73.2163 210.526L72.6182 209.306L72.0651 208.07L71.7075 207.269L71.1561 206.036L70.6431 204.773L70.3123 203.96L69.806 202.71L69.3381 201.43L69.0374 200.607L68.5729 199.334L68.1518 198.044L67.8794 197.21L67.4617 195.929L67.0841 194.618L66.8418 193.774L66.4675 192.478L66.1367 191.157L65.9244 190.307L65.5953 188.994L65.3112 187.666L65.1274 186.809L64.8434 185.481L64.6078 184.15L64.4557 183.286L64.2184 181.942L64.0313 180.61L63.9093 179.742L63.7205 178.401L63.5785 177.053L63.4866 176.181L63.3462 174.845L63.251 173.48L63.1891 172.605L63.0956 171.274L63.0471 169.899L63.017 169.022L62.9702 167.678V164.07L63.017 162.726L63.0471 161.849L63.0956 160.476L63.1891 159.143L63.251 158.268L63.3462 156.905L63.4882 155.568L63.5801 154.696L63.7222 153.349L63.911 152.007L64.033 151.138L64.2201 149.807L64.4574 148.462L64.6094 147.599L64.845 146.266L65.1291 144.938L65.3129 144.081L65.5953 142.757L65.9244 141.44L66.1367 140.59L66.4658 139.272L66.8401 137.974L67.0824 137.131L67.46 135.821L67.8794 134.538L68.1518 133.704L68.5712 132.417L69.0374 131.142L69.3381 130.318L69.8043 129.042L70.3123 127.789L70.6431 126.975L71.1528 125.719L71.7058 124.481L72.0634 123.681L72.6165 122.441L73.213 121.225L73.599 120.436L74.1989 119.213L74.8355 118.021L75.2482 117.248L75.8882 116.05L76.5682 114.878L77.0093 114.119L77.6861 112.953L78.4112 111.796L78.8774 111.053L79.5959 109.908L80.3595 108.781L80.8525 108.054L81.6178 106.924L82.4131 105.834L82.9311 105.126L83.7398 104.017L84.5686 102.961L85.11 102.27L85.9471 101.204L86.8227 100.165L87.3891 99.4929L88.2597 98.4596L89.1737 97.4479L89.7635 96.7956L90.6725 95.7906L91.6199 94.8138L92.2314 94.1832L93.1722 93.2131L94.1547 92.2679L94.788 91.6589L95.7604 90.7237L96.778 89.8119L97.433 89.2245L98.4406 88.3209L99.4866 87.4473L100.162 86.8833L101.204 86.0113L102.275 85.1777L102.969 84.6385L104.038 83.8065L105.141 83.0078L105.853 82.492L106.947 81.6999L108.082 80.9378L108.812 80.447L109.935 79.6932L111.094 78.971L111.841 78.5068L112.988 77.7929L114.174 77.1107L114.936 76.6714L116.116 75.9925L117.315 75.3568L118.092 74.9458L119.295 74.3102L120.519 73.7162L121.311 73.3318L122.539 72.7344L123.777 72.1853L124.581 71.8292L125.83 71.2751L127.085 70.7709L127.902 70.4431L129.164 69.9356L130.442 69.473L131.269 69.1735L132.551 68.7092L133.842 68.2916L134.68 68.0203L135.971 67.6027L137.283 67.2283L138.13 66.987L139.43 66.6159L140.758 66.2865L141.612 66.0751L142.937 65.7457L144.264 65.4645L145.126 65.2814L146.465 64.9985L147.796 64.7656L148.664 64.6142L150.012 64.3779L151.352 64.1898L152.224 64.0684L153.571 63.8803L154.924 63.7389L155.8 63.6474L157.143 63.5059L158.51 63.4111L159.389 63.3495L160.726 63.2563L162.108 63.2081L162.988 63.1781L164.335 63.1315L164.328 63.1132Z" fill="url(#paint0_radial_1040_2381)"/>
</g>
</g>
<path d="M137.56 176.432C139.448 176.432 140.952 175.728 142.072 174.256C143.192 172.816 143.768 170.544 143.768 167.472C143.768 164.4 143.192 162.128 142.072 160.624C140.92 159.12 139.416 158.352 137.56 158.352C135.64 158.352 134.104 159.12 133.016 160.592C131.928 162.096 131.384 164.4 131.384 167.472C131.384 170.544 131.928 172.816 133.016 174.256C134.104 175.728 135.64 176.432 137.56 176.432ZM137.56 178.672C136.088 178.672 134.808 178.416 133.72 177.84C132.632 177.296 131.736 176.528 131.032 175.536C130.328 174.576 129.784 173.392 129.464 172.016C129.112 170.64 128.952 169.136 128.952 167.472C128.952 165.84 129.112 164.336 129.464 162.96C129.784 161.616 130.328 160.432 131.032 159.408C131.736 158.384 132.632 157.616 133.72 157.04C134.808 156.464 136.088 156.176 137.56 156.176C139 156.176 140.248 156.464 141.336 157.04C142.424 157.616 143.32 158.384 144.024 159.408C144.728 160.432 145.24 161.616 145.592 162.96C145.912 164.336 146.104 165.84 146.104 167.472C146.104 169.136 145.912 170.64 145.592 172.016C145.24 173.392 144.728 174.576 144.024 175.536C143.32 176.528 142.424 177.296 141.336 177.84C140.248 178.416 139 178.672 137.56 178.672ZM153.534 159.376L148.83 160.72V158.608L155.806 156.624V178.416H153.534V159.376ZM163.06 178.736C162.58 178.736 162.164 178.576 161.844 178.224C161.492 177.904 161.332 177.488 161.332 177.008C161.332 176.56 161.492 176.144 161.844 175.792C162.164 175.472 162.58 175.28 163.06 175.28C163.508 175.28 163.924 175.472 164.276 175.792C164.596 176.144 164.788 176.56 164.788 177.008C164.788 177.488 164.596 177.904 164.276 178.224C163.924 178.576 163.508 178.736 163.06 178.736ZM163.06 163.728C162.58 163.728 162.164 163.568 161.844 163.216C161.492 162.896 161.332 162.48 161.332 162C161.332 161.552 161.492 161.136 161.844 160.784C162.164 160.464 162.58 160.272 163.06 160.272C163.508 160.272 163.924 160.464 164.276 160.784C164.596 161.136 164.788 161.552 164.788 162C164.788 162.48 164.596 162.896 164.276 163.216C163.924 163.568 163.508 163.728 163.06 163.728ZM174.426 178.672C173.082 178.672 171.866 178.48 170.746 178.096C169.594 177.712 168.474 177.104 167.322 176.208L168.634 174.256C169.626 175.088 170.554 175.632 171.418 175.952C172.25 176.272 173.242 176.432 174.394 176.432C175.161 176.432 175.898 176.368 176.602 176.176C177.306 175.984 177.914 175.728 178.426 175.376C178.938 175.024 179.322 174.608 179.61 174.096C179.898 173.584 180.058 173.008 180.058 172.304C180.058 171.536 179.898 170.896 179.642 170.384C179.354 169.872 178.97 169.424 178.458 169.072C177.946 168.752 177.306 168.496 176.57 168.336C175.802 168.176 174.97 168.08 174.01 168.08H173.242V165.872H173.914C175.898 165.872 177.338 165.552 178.234 164.848C179.098 164.176 179.546 163.248 179.546 162.032C179.546 161.488 179.418 161.008 179.194 160.56C178.938 160.144 178.618 159.76 178.17 159.44C177.722 159.12 177.21 158.896 176.602 158.704C175.994 158.512 175.322 158.416 174.618 158.416C173.498 158.416 172.538 158.576 171.738 158.896C170.906 159.216 170.01 159.792 168.986 160.592L167.738 158.64C168.858 157.776 169.978 157.136 171.066 156.752C172.154 156.368 173.338 156.176 174.682 156.176C175.674 156.176 176.602 156.304 177.498 156.56C178.362 156.816 179.13 157.2 179.802 157.68C180.442 158.192 180.986 158.8 181.37 159.504C181.754 160.208 181.978 161.008 181.978 161.872C181.978 162.608 181.85 163.28 181.594 163.888C181.338 164.528 181.018 165.072 180.634 165.52C180.25 165.968 179.866 166.288 179.546 166.48C179.226 166.672 178.906 166.832 178.618 166.896C179.002 166.96 179.386 167.12 179.77 167.312C180.154 167.504 180.538 167.856 180.986 168.336C181.434 168.816 181.786 169.392 182.042 170.064C182.298 170.736 182.458 171.472 182.458 172.304C182.458 173.328 182.234 174.256 181.786 175.056C181.338 175.888 180.762 176.56 180.026 177.072C179.29 177.616 178.458 178.032 177.498 178.288C176.538 178.544 175.514 178.672 174.426 178.672ZM195.091 176.432C196.979 176.432 198.483 175.728 199.603 174.256C200.723 172.816 201.299 170.544 201.299 167.472C201.299 164.4 200.723 162.128 199.603 160.624C198.451 159.12 196.947 158.352 195.091 158.352C193.171 158.352 191.635 159.12 190.547 160.592C189.459 162.096 188.915 164.4 188.915 167.472C188.915 170.544 189.459 172.816 190.547 174.256C191.635 175.728 193.171 176.432 195.091 176.432ZM195.091 178.672C193.619 178.672 192.339 178.416 191.251 177.84C190.163 177.296 189.267 176.528 188.563 175.536C187.859 174.576 187.315 173.392 186.995 172.016C186.643 170.64 186.483 169.136 186.483 167.472C186.483 165.84 186.643 164.336 186.995 162.96C187.315 161.616 187.859 160.432 188.563 159.408C189.267 158.384 190.163 157.616 191.251 157.04C192.339 156.464 193.619 156.176 195.091 156.176C196.531 156.176 197.779 156.464 198.867 157.04C199.955 157.616 200.851 158.384 201.555 159.408C202.259 160.432 202.771 161.616 203.123 162.96C203.443 164.336 203.635 165.84 203.635 167.472C203.635 169.136 203.443 170.64 203.123 172.016C202.771 173.392 202.259 174.576 201.555 175.536C200.851 176.528 199.955 177.296 198.867 177.84C197.779 178.416 196.531 178.672 195.091 178.672Z" fill="white"/>
<defs>
<radialGradient id="paint0_radial_1040_2381" cx="0" cy="0" r="1" gradientUnits="userSpaceOnUse" gradientTransform="translate(328.321 168.507) rotate(174.582) scale(323.229 344.505)">
<stop stop-color="#001D1D"/>
<stop offset="0.525" stop-color="#001D1D"/>
<stop offset="1" stop-color="#027247"/>
</radialGradient>
<clipPath id="clip0_1040_2381">
<rect width="335" height="337" fill="white"/>
</clipPath>
</defs>
</svg>
